<?xml version="1.0" standalone="no"?>
<!DOCTYPE svg PUBLIC "-//W3C//DTD SVG 1.1//EN" "http://www.w3.org/Graphics/SVG/1.1/DTD/svg11.dtd">
<svg width="1538px" height="2530px" version="1.1" xmlns="http://www.w3.org/2000/svg">

<!-- This file is a systemd-analyze SVG file. It is best rendered in a   -->
<!-- browser such as Chrome, Chromium or Firefox. Other applications     -->
<!-- that render these files properly but much slower are ImageMagick,   -->
<!-- gimp, inkscape, etc. To display the files on your system, just      -->
<!-- point your browser to this file.                                    -->

<!-- This plot was generated by systemd-analyze version 211              -->

<defs>
  <style type="text/css">
    <![CDATA[
      rect       { stroke-width: 1; stroke-opacity: 0; }
      rect.background   { fill: rgb(255,255,255); }
      rect.activating   { fill: rgb(255,0,0); fill-opacity: 0.7; }
      rect.active       { fill: rgb(200,150,150); fill-opacity: 0.7; }
      rect.deactivating { fill: rgb(150,100,100); fill-opacity: 0.7; }
      rect.kernel       { fill: rgb(150,150,150); fill-opacity: 0.7; }
      rect.initrd       { fill: rgb(150,150,150); fill-opacity: 0.7; }
      rect.firmware     { fill: rgb(150,150,150); fill-opacity: 0.7; }
      rect.loader       { fill: rgb(150,150,150); fill-opacity: 0.7; }
      rect.userspace    { fill: rgb(150,150,150); fill-opacity: 0.7; }
      rect.security     { fill: rgb(144,238,144); fill-opacity: 0.7; }
      rect.generators   { fill: rgb(102,204,255); fill-opacity: 0.7; }
      rect.unitsload    { fill: rgb( 82,184,255); fill-opacity: 0.7; }
      rect.box   { fill: rgb(240,240,240); stroke: rgb(192,192,192); }
      line       { stroke: rgb(64,64,64); stroke-width: 1; }
//    line.sec1  { }
      line.sec5  { stroke-width: 2; }
      line.sec01 { stroke: rgb(224,224,224); stroke-width: 1; }
      text       { font-family: Verdana, Helvetica; font-size: 14px; }
      text.left  { font-family: Verdana, Helvetica; font-size: 14px; text-anchor: start; }
      text.right { font-family: Verdana, Helvetica; font-size: 14px; text-anchor: end; }
      text.sec   { font-size: 10px; }
    ]]>
   </style>
</defs>

<rect class="background" width="100%" height="100%" />
<text x="20" y="50">Startup finished in 704ms (kernel) + 5.275s (userspace) = 5.980s</text><text x="20" y="30">ADIT embedded Linux Platform - Genivi6  - MGC drop spring-2014-05 inte_r3_e14 - Hotfix: '' mx6q (3.14.44-03041-g58bae0b #1 SMP PREEMPT Tue Jun 30 15:55:11 CEST 2015) armv7l</text><g transform="translate(20.000,100)">
<rect class="box" x="0" y="0" width="598.085" height="2280.000" />
  <line class="sec5" x1="0.000" y1="0" x2="0.000" y2="2280.000" />
  <text class="sec" x="0.000" y="-5.000" >0.0s</text>
  <line class="sec01" x1="10.000" y1="0" x2="10.000" y2="2280.000" />
  <line class="sec01" x1="20.000" y1="0" x2="20.000" y2="2280.000" />
  <line class="sec01" x1="30.000" y1="0" x2="30.000" y2="2280.000" />
  <line class="sec01" x1="40.000" y1="0" x2="40.000" y2="2280.000" />
  <line class="sec01" x1="50.000" y1="0" x2="50.000" y2="2280.000" />
  <line class="sec01" x1="60.000" y1="0" x2="60.000" y2="2280.000" />
  <line class="sec01" x1="70.000" y1="0" x2="70.000" y2="2280.000" />
  <line class="sec01" x1="80.000" y1="0" x2="80.000" y2="2280.000" />
  <line class="sec01" x1="90.000" y1="0" x2="90.000" y2="2280.000" />
  <line class="sec1" x1="100.000" y1="0" x2="100.000" y2="2280.000" />
  <text class="sec" x="100.000" y="-5.000" >1.0s</text>
  <line class="sec01" x1="110.000" y1="0" x2="110.000" y2="2280.000" />
  <line class="sec01" x1="120.000" y1="0" x2="120.000" y2="2280.000" />
  <line class="sec01" x1="130.000" y1="0" x2="130.000" y2="2280.000" />
  <line class="sec01" x1="140.000" y1="0" x2="140.000" y2="2280.000" />
  <line class="sec01" x1="150.000" y1="0" x2="150.000" y2="2280.000" />
  <line class="sec01" x1="160.000" y1="0" x2="160.000" y2="2280.000" />
  <line class="sec01" x1="170.000" y1="0" x2="170.000" y2="2280.000" />
  <line class="sec01" x1="180.000" y1="0" x2="180.000" y2="2280.000" />
  <line class="sec01" x1="190.000" y1="0" x2="190.000" y2="2280.000" />
  <line class="sec1" x1="200.000" y1="0" x2="200.000" y2="2280.000" />
  <text class="sec" x="200.000" y="-5.000" >2.0s</text>
  <line class="sec01" x1="210.000" y1="0" x2="210.000" y2="2280.000" />
  <line class="sec01" x1="220.000" y1="0" x2="220.000" y2="2280.000" />
  <line class="sec01" x1="230.000" y1="0" x2="230.000" y2="2280.000" />
  <line class="sec01" x1="240.000" y1="0" x2="240.000" y2="2280.000" />
  <line class="sec01" x1="250.000" y1="0" x2="250.000" y2="2280.000" />
  <line class="sec01" x1="260.000" y1="0" x2="260.000" y2="2280.000" />
  <line class="sec01" x1="270.000" y1="0" x2="270.000" y2="2280.000" />
  <line class="sec01" x1="280.000" y1="0" x2="280.000" y2="2280.000" />
  <line class="sec01" x1="290.000" y1="0" x2="290.000" y2="2280.000" />
  <line class="sec1" x1="300.000" y1="0" x2="300.000" y2="2280.000" />
  <text class="sec" x="300.000" y="-5.000" >3.0s</text>
  <line class="sec01" x1="310.000" y1="0" x2="310.000" y2="2280.000" />
  <line class="sec01" x1="320.000" y1="0" x2="320.000" y2="2280.000" />
  <line class="sec01" x1="330.000" y1="0" x2="330.000" y2="2280.000" />
  <line class="sec01" x1="340.000" y1="0" x2="340.000" y2="2280.000" />
  <line class="sec01" x1="350.000" y1="0" x2="350.000" y2="2280.000" />
  <line class="sec01" x1="360.000" y1="0" x2="360.000" y2="2280.000" />
  <line class="sec01" x1="370.000" y1="0" x2="370.000" y2="2280.000" />
  <line class="sec01" x1="380.000" y1="0" x2="380.000" y2="2280.000" />
  <line class="sec01" x1="390.000" y1="0" x2="390.000" y2="2280.000" />
  <line class="sec1" x1="400.000" y1="0" x2="400.000" y2="2280.000" />
  <text class="sec" x="400.000" y="-5.000" >4.0s</text>
  <line class="sec01" x1="410.000" y1="0" x2="410.000" y2="2280.000" />
  <line class="sec01" x1="420.000" y1="0" x2="420.000" y2="2280.000" />
  <line class="sec01" x1="430.000" y1="0" x2="430.000" y2="2280.000" />
  <line class="sec01" x1="440.000" y1="0" x2="440.000" y2="2280.000" />
  <line class="sec01" x1="450.000" y1="0" x2="450.000" y2="2280.000" />
  <line class="sec01" x1="460.000" y1="0" x2="460.000" y2="2280.000" />
  <line class="sec01" x1="470.000" y1="0" x2="470.000" y2="2280.000" />
  <line class="sec01" x1="480.000" y1="0" x2="480.000" y2="2280.000" />
  <line class="sec01" x1="490.000" y1="0" x2="490.000" y2="2280.000" />
  <line class="sec5" x1="500.000" y1="0" x2="500.000" y2="2280.000" />
  <text class="sec" x="500.000" y="-5.000" >5.0s</text>
  <line class="sec01" x1="510.000" y1="0" x2="510.000" y2="2280.000" />
  <line class="sec01" x1="520.000" y1="0" x2="520.000" y2="2280.000" />
  <line class="sec01" x1="530.000" y1="0" x2="530.000" y2="2280.000" />
  <line class="sec01" x1="540.000" y1="0" x2="540.000" y2="2280.000" />
  <line class="sec01" x1="550.000" y1="0" x2="550.000" y2="2280.000" />
  <line class="sec01" x1="560.000" y1="0" x2="560.000" y2="2280.000" />
  <line class="sec01" x1="570.000" y1="0" x2="570.000" y2="2280.000" />
  <line class="sec01" x1="580.000" y1="0" x2="580.000" y2="2280.000" />
  <line class="sec01" x1="590.000" y1="0" x2="590.000" y2="2280.000" />
  <rect class="kernel" x="0.000" y="0.000" width="70.493" height="19.000" />
  <text class="left" x="5.000" y="14.000">kernel</text>
  <rect class="active" x="70.493" y="20.000" width="527.591" height="19.000" />
  <rect class="security" x="72.959" y="20.000" width="0.000" height="19.000" />
  <rect class="generators" x="81.889" y="20.000" width="0.261" height="19.000" />
  <rect class="unitsload" x="83.444" y="20.000" width="0.723" height="19.000" />
  <text class="left" x="75.493" y="34.000">systemd</text>
  <rect class="activating" x="84.189" y="40.000" width="0.000" height="19.000" />
  <rect class="active" x="84.189" y="40.000" width="513.896" height="19.000" />
  <rect class="deactivating" x="598.085" y="40.000" width="0.000" height="19.000" />
  <text class="left" x="89.189" y="54.000">-.mount</text>
  <rect class="activating" x="96.477" y="60.000" width="0.000" height="19.000" />
  <rect class="active" x="96.477" y="60.000" width="501.608" height="19.000" />
  <rect class="deactivating" x="598.085" y="60.000" width="0.000" height="19.000" />
  <text class="left" x="101.477" y="74.000">-.slice</text>
  <rect class="activating" x="96.596" y="80.000" width="0.000" height="19.000" />
  <rect class="active" x="96.596" y="80.000" width="501.489" height="19.000" />
  <rect class="deactivating" x="598.085" y="80.000" width="0.000" height="19.000" />
  <text class="left" x="101.596" y="94.000">system.slice</text>
  <rect class="activating" x="96.835" y="100.000" width="1.448" height="19.000" />
  <rect class="active" x="98.282" y="100.000" width="499.802" height="19.000" />
  <rect class="deactivating" x="598.085" y="100.000" width="0.000" height="19.000" />
  <text class="left" x="101.835" y="114.000">systemd-journald.socket (14ms)</text>
  <rect class="activating" x="96.850" y="120.000" width="0.000" height="19.000" />
  <rect class="active" x="96.850" y="120.000" width="501.235" height="19.000" />
  <rect class="deactivating" x="598.085" y="120.000" width="0.000" height="19.000" />
  <text class="left" x="101.850" y="134.000">slices.target</text>
  <rect class="activating" x="97.264" y="140.000" width="0.000" height="19.000" />
  <rect class="active" x="97.264" y="140.000" width="500.821" height="19.000" />
  <rect class="deactivating" x="598.085" y="140.000" width="0.000" height="19.000" />
  <text class="left" x="102.264" y="154.000">sshd.socket</text>
  <rect class="activating" x="98.586" y="160.000" width="2.615" height="19.000" />
  <rect class="active" x="101.201" y="160.000" width="496.883" height="19.000" />
  <rect class="deactivating" x="598.085" y="160.000" width="0.000" height="19.000" />
  <text class="left" x="103.586" y="174.000">exception-handler.service (26ms)</text>
  <rect class="activating" x="101.509" y="180.000" width="0.930" height="19.000" />
  <rect class="active" x="102.439" y="180.000" width="495.646" height="19.000" />
  <rect class="deactivating" x="598.085" y="180.000" width="0.000" height="19.000" />
  <text class="left" x="106.509" y="194.000">adit-inc.service (9ms)</text>
  <rect class="activating" x="102.474" y="200.000" width="0.000" height="19.000" />
  <rect class="active" x="102.474" y="200.000" width="495.610" height="19.000" />
  <rect class="deactivating" x="598.085" y="200.000" width="0.000" height="19.000" />
  <text class="left" x="107.474" y="214.000">pretty-early.target</text>
  <rect class="activating" x="103.133" y="220.000" width="4.568" height="19.000" />
  <rect class="active" x="107.701" y="220.000" width="490.384" height="19.000" />
  <rect class="deactivating" x="598.085" y="220.000" width="0.000" height="19.000" />
  <text class="left" x="108.133" y="234.000">systemd-sysctl.service (45ms)</text>
  <rect class="activating" x="103.453" y="240.000" width="6.089" height="19.000" />
  <rect class="active" x="109.543" y="240.000" width="488.542" height="19.000" />
  <rect class="deactivating" x="598.085" y="240.000" width="0.000" height="19.000" />
  <text class="left" x="108.453" y="254.000">early-devices-setup.service (60ms)</text>
  <rect class="activating" x="103.803" y="260.000" width="4.075" height="19.000" />
  <rect class="active" x="107.879" y="260.000" width="490.206" height="19.000" />
  <rect class="deactivating" x="598.085" y="260.000" width="0.000" height="19.000" />
  <text class="left" x="108.803" y="274.000">sysmount-helper.service (40ms)</text>
  <rect class="activating" x="106.116" y="280.000" width="0.000" height="19.000" />
  <rect class="active" x="106.116" y="280.000" width="491.969" height="19.000" />
  <rect class="deactivating" x="598.085" y="280.000" width="0.000" height="19.000" />
  <text class="left" x="111.116" y="294.000">dbus.socket</text>
  <rect class="activating" x="106.144" y="300.000" width="0.000" height="19.000" />
  <rect class="active" x="106.144" y="300.000" width="491.941" height="19.000" />
  <rect class="deactivating" x="598.085" y="300.000" width="0.000" height="19.000" />
  <text class="left" x="111.144" y="314.000">sockets.target</text>
  <rect class="activating" x="106.216" y="320.000" width="0.000" height="19.000" />
  <rect class="active" x="106.216" y="320.000" width="491.869" height="19.000" />
  <rect class="deactivating" x="598.085" y="320.000" width="0.000" height="19.000" />
  <text class="left" x="111.216" y="334.000">systemd-udevd-kernel.socket</text>
  <rect class="activating" x="106.278" y="340.000" width="0.000" height="19.000" />
  <rect class="active" x="106.278" y="340.000" width="491.806" height="19.000" />
  <rect class="deactivating" x="598.085" y="340.000" width="0.000" height="19.000" />
  <text class="left" x="111.278" y="354.000">systemd-udevd-control.socket</text>
  <rect class="activating" x="107.543" y="360.000" width="0.000" height="19.000" />
  <rect class="active" x="107.543" y="360.000" width="490.542" height="19.000" />
  <rect class="deactivating" x="598.085" y="360.000" width="0.000" height="19.000" />
  <text class="left" x="112.543" y="374.000">media.mount</text>
  <rect class="activating" x="107.554" y="380.000" width="0.000" height="19.000" />
  <rect class="active" x="107.554" y="380.000" width="490.531" height="19.000" />
  <rect class="deactivating" x="598.085" y="380.000" width="0.000" height="19.000" />
  <text class="left" x="112.554" y="394.000">sys-kernel-debug.mount</text>
  <rect class="activating" x="107.561" y="400.000" width="0.000" height="19.000" />
  <rect class="active" x="107.561" y="400.000" width="490.524" height="19.000" />
  <rect class="deactivating" x="598.085" y="400.000" width="0.000" height="19.000" />
  <text class="left" x="112.561" y="414.000">dev-mqueue.mount</text>
  <rect class="activating" x="107.587" y="420.000" width="0.000" height="19.000" />
  <rect class="active" x="107.587" y="420.000" width="490.498" height="19.000" />
  <rect class="deactivating" x="598.085" y="420.000" width="0.000" height="19.000" />
  <text class="left" x="112.587" y="434.000">var-volatile.mount</text>
  <rect class="activating" x="110.940" y="440.000" width="69.228" height="19.000" />
  <rect class="active" x="180.168" y="440.000" width="417.917" height="19.000" />
  <rect class="deactivating" x="598.085" y="440.000" width="0.000" height="19.000" />
  <text class="left" x="115.940" y="454.000">adit-early-features.service (692ms)</text>
  <rect class="activating" x="111.452" y="460.000" width="4.461" height="19.000" />
  <rect class="active" x="115.913" y="460.000" width="482.172" height="19.000" />
  <rect class="deactivating" x="598.085" y="460.000" width="0.000" height="19.000" />
  <text class="left" x="116.452" y="474.000">systemd-tmpfiles-setup.service (44ms)</text>
  <rect class="activating" x="113.178" y="480.000" width="3.589" height="19.000" />
  <rect class="active" x="116.768" y="480.000" width="481.317" height="19.000" />
  <rect class="deactivating" x="598.085" y="480.000" width="0.000" height="19.000" />
  <text class="left" x="118.178" y="494.000">systemd-udevd.service (35ms)</text>
  <rect class="activating" x="117.852" y="500.000" width="0.000" height="19.000" />
  <rect class="active" x="117.852" y="500.000" width="480.233" height="19.000" />
  <rect class="deactivating" x="598.085" y="500.000" width="0.000" height="19.000" />
  <text class="left" x="122.852" y="514.000">volatile-fs.target</text>
  <rect class="activating" x="119.416" y="520.000" width="50.239" height="19.000" />
  <rect class="active" x="169.655" y="520.000" width="428.429" height="19.000" />
  <rect class="deactivating" x="598.085" y="520.000" width="0.000" height="19.000" />
  <text class="left" x="124.416" y="534.000">layer-management-wayland.service (502ms)</text>
  <rect class="activating" x="133.855" y="540.000" width="0.000" height="19.000" />
  <rect class="active" x="133.855" y="540.000" width="464.230" height="19.000" />
  <rect class="deactivating" x="598.085" y="540.000" width="0.000" height="19.000" />
  <text class="left" x="138.855" y="554.000">sys-devices-soc0-pwm_bl_lvds0.25-backlight-pwm_bl_lvds0.25.device</text>
  <rect class="activating" x="133.977" y="560.000" width="0.000" height="19.000" />
  <rect class="active" x="133.977" y="560.000" width="464.107" height="19.000" />
  <rect class="deactivating" x="598.085" y="560.000" width="0.000" height="19.000" />
  <text class="left" x="138.977" y="574.000">sys-devices-soc0-pwm_bl_lvds1.26-backlight-pwm_bl_lvds1.26.device</text>
  <rect class="activating" x="180.212" y="580.000" width="0.000" height="19.000" />
  <rect class="active" x="180.212" y="580.000" width="417.873" height="19.000" />
  <rect class="deactivating" x="598.085" y="580.000" width="0.000" height="19.000" />
  <text class="left" x="185.212" y="594.000">basic.target</text>
  <rect class="activating" x="180.574" y="600.000" width="64.810" height="19.000" />
  <rect class="active" x="245.384" y="600.000" width="352.701" height="19.000" />
  <rect class="deactivating" x="598.085" y="600.000" width="0.000" height="19.000" />
  <text class="left" x="185.574" y="614.000">node-startup-controller.service (648ms)</text>
  <rect class="activating" x="181.119" y="620.000" width="6.267" height="19.000" />
  <rect class="active" x="187.385" y="620.000" width="410.699" height="19.000" />
  <rect class="deactivating" x="598.085" y="620.000" width="0.000" height="19.000" />
  <text class="left" x="186.119" y="634.000">i2c-dev-setup.service (62ms)</text>
  <rect class="activating" x="181.524" y="640.000" width="29.597" height="19.000" />
  <rect class="active" x="211.121" y="640.000" width="386.964" height="19.000" />
  <rect class="deactivating" x="598.085" y="640.000" width="0.000" height="19.000" />
  <text class="left" x="186.524" y="654.000">gpio-setup.service (295ms)</text>
  <rect class="activating" x="181.815" y="660.000" width="11.317" height="19.000" />
  <rect class="active" x="193.132" y="660.000" width="404.952" height="19.000" />
  <rect class="deactivating" x="598.085" y="660.000" width="0.000" height="19.000" />
  <text class="left" x="186.815" y="674.000">dlt.service (113ms)</text>
  <rect class="activating" x="182.190" y="680.000" width="7.024" height="19.000" />
  <rect class="active" x="189.214" y="680.000" width="408.871" height="19.000" />
  <rect class="deactivating" x="598.085" y="680.000" width="0.000" height="19.000" />
  <text class="left" x="187.190" y="694.000">mdnsresponder.service (70ms)</text>
  <rect class="activating" x="182.671" y="700.000" width="45.474" height="19.000" />
  <rect class="active" x="228.146" y="700.000" width="369.939" height="19.000" />
  <rect class="deactivating" x="598.085" y="700.000" width="0.000" height="19.000" />
  <text class="left" x="187.671" y="714.000">audio-setup-imx6qdls-sabreauto.service (454ms)</text>
  <rect class="activating" x="183.171" y="720.000" width="28.575" height="19.000" />
  <rect class="active" x="211.746" y="720.000" width="386.339" height="19.000" />
  <rect class="deactivating" x="598.085" y="720.000" width="0.000" height="19.000" />
  <text class="left" x="188.171" y="734.000">audio-setup-mxc-asrc.service (285ms)</text>
  <rect class="activating" x="193.610" y="740.000" width="21.523" height="19.000" />
  <rect class="active" x="215.133" y="740.000" width="382.952" height="19.000" />
  <rect class="deactivating" x="598.085" y="740.000" width="0.000" height="19.000" />
  <text class="left" x="198.610" y="754.000">nodestatemanager-daemon.service (215ms)</text>
  <rect class="activating" x="194.498" y="760.000" width="0.000" height="19.000" />
  <rect class="active" x="194.498" y="760.000" width="403.587" height="19.000" />
  <rect class="deactivating" x="598.085" y="760.000" width="0.000" height="19.000" />
  <text class="left" x="199.498" y="774.000">dbus.service</text>
  <rect class="activating" x="212.194" y="780.000" width="0.000" height="19.000" />
  <rect class="active" x="212.194" y="780.000" width="385.891" height="19.000" />
  <rect class="deactivating" x="598.085" y="780.000" width="0.000" height="19.000" />
  <text class="left" x="217.194" y="794.000">sys-devices-soc0-sound_cs42888.20-sound-card0.device</text>
  <rect class="activating" x="215.504" y="800.000" width="0.000" height="19.000" />
  <rect class="active" x="215.504" y="800.000" width="382.581" height="19.000" />
  <rect class="deactivating" x="598.085" y="800.000" width="0.000" height="19.000" />
  <text class="left" x="220.504" y="814.000">adit-aauto-model.service</text>
  <rect class="activating" x="215.859" y="820.000" width="0.000" height="19.000" />
  <rect class="active" x="215.859" y="820.000" width="382.225" height="19.000" />
  <rect class="deactivating" x="598.085" y="820.000" width="0.000" height="19.000" />
  <text class="left" x="220.859" y="834.000">adit-myspin-model.service</text>
  <rect class="activating" x="216.298" y="840.000" width="6.956" height="19.000" />
  <rect class="active" x="223.255" y="840.000" width="0.000" height="19.000" />
  <rect class="deactivating" x="223.255" y="840.000" width="0.000" height="19.000" />
  <text class="left" x="221.298" y="854.000">adit-basemark-mobile.service (69ms)</text>
  <rect class="activating" x="216.678" y="860.000" width="9.722" height="19.000" />
  <rect class="active" x="226.400" y="860.000" width="0.000" height="19.000" />
  <rect class="deactivating" x="226.400" y="860.000" width="0.000" height="19.000" />
  <text class="left" x="221.678" y="874.000">adit-basemark-es2.service (97ms)</text>
  <rect class="activating" x="216.698" y="880.000" width="0.000" height="19.000" />
  <rect class="active" x="216.698" y="880.000" width="381.387" height="19.000" />
  <rect class="deactivating" x="598.085" y="880.000" width="0.000" height="19.000" />
  <text class="left" x="221.698" y="894.000">ipod-auth.target</text>
  <rect class="activating" x="217.137" y="900.000" width="380.440" height="19.000" />
  <rect class="active" x="597.577" y="900.000" width="0.508" height="19.000" />
  <rect class="deactivating" x="598.085" y="900.000" width="0.000" height="19.000" />
  <text class="left" x="222.137" y="914.000">carplay.service (3.804s)</text>
  <rect class="activating" x="227.848" y="920.000" width="0.000" height="19.000" />
  <rect class="active" x="227.848" y="920.000" width="370.236" height="19.000" />
  <rect class="deactivating" x="598.085" y="920.000" width="0.000" height="19.000" />
  <text class="left" x="232.848" y="934.000">etc-asound.conf.mount</text>
  <rect class="activating" x="230.041" y="940.000" width="12.970" height="19.000" />
  <rect class="active" x="243.011" y="940.000" width="355.074" height="19.000" />
  <rect class="deactivating" x="598.085" y="940.000" width="0.000" height="19.000" />
  <text class="left" x="235.041" y="954.000">audio-setup-imx6q-sabreauto-masca.service (129ms)</text>
  <rect class="activating" x="230.399" y="960.000" width="212.689" height="19.000" />
  <rect class="active" x="443.088" y="960.000" width="154.997" height="19.000" />
  <rect class="deactivating" x="598.085" y="960.000" width="0.000" height="19.000" />
  <text class="left" x="235.399" y="974.000">adit-hmi.service (2.126s)</text>
  <rect class="activating" x="239.179" y="980.000" width="0.000" height="19.000" />
  <rect class="active" x="239.179" y="980.000" width="358.905" height="19.000" />
  <rect class="deactivating" x="598.085" y="980.000" width="0.000" height="19.000" />
  <text class="left" x="244.179" y="994.000">sys-devices-soc0-sound_masca.28-sound-card1.device</text>
  <rect class="activating" x="240.260" y="1000.000" width="31.650" height="19.000" />
  <rect class="active" x="271.910" y="1000.000" width="326.174" height="19.000" />
  <rect class="deactivating" x="598.085" y="1000.000" width="0.000" height="19.000" />
  <text class="left" x="245.260" y="1014.000">sdc.service (316ms)</text>
  <rect class="activating" x="249.769" y="1020.000" width="0.000" height="19.000" />
  <rect class="active" x="249.769" y="1020.000" width="348.316" height="19.000" />
  <rect class="deactivating" x="598.085" y="1020.000" width="0.000" height="19.000" />
  <text class="left" x="254.769" y="1034.000">audio-setup.target</text>
  <rect class="activating" x="444.016" y="1040.000" width="0.000" height="19.000" />
  <rect class="active" x="444.016" y="1040.000" width="154.068" height="19.000" />
  <rect class="deactivating" x="598.085" y="1040.000" width="0.000" height="19.000" />
  <text class="left" x="449.016" y="1054.000">startup.target</text>
  <rect class="activating" x="444.180" y="1060.000" width="0.000" height="19.000" />
  <rect class="active" x="444.180" y="1060.000" width="153.905" height="19.000" />
  <rect class="deactivating" x="598.085" y="1060.000" width="0.000" height="19.000" />
  <text class="left" x="449.180" y="1074.000">unfocussed.target</text>
  <rect class="activating" x="444.579" y="1080.000" width="19.597" height="19.000" />
  <rect class="active" x="464.176" y="1080.000" width="133.909" height="19.000" />
  <rect class="deactivating" x="598.085" y="1080.000" width="0.000" height="19.000" />
  <text class="left" x="449.579" y="1094.000">systemd-journald.service (195ms)</text>
  <rect class="activating" x="444.942" y="1100.000" width="109.934" height="19.000" />
  <rect class="active" x="554.876" y="1100.000" width="0.000" height="19.000" />
  <rect class="deactivating" x="554.876" y="1100.000" width="0.000" height="19.000" />
  <text class="left" x="449.942" y="1114.000">late-services-helper.service (1.099s)</text>
  <rect class="activating" x="452.634" y="1120.000" width="10.898" height="19.000" />
  <rect class="active" x="463.533" y="1120.000" width="0.000" height="19.000" />
  <rect class="deactivating" x="463.533" y="1120.000" width="0.000" height="19.000" />
  <text class="left" x="457.634" y="1134.000">network_setup.service (108ms)</text>
  <rect class="activating" x="453.020" y="1140.000" width="22.472" height="19.000" />
  <rect class="active" x="475.492" y="1140.000" width="122.593" height="19.000" />
  <rect class="deactivating" x="598.085" y="1140.000" width="0.000" height="19.000" />
  <text class="left" x="458.020" y="1154.000">systemd-udev-trigger.service (224ms)</text>
  <rect class="activating" x="453.443" y="1160.000" width="52.170" height="19.000" />
  <rect class="active" x="505.614" y="1160.000" width="92.471" height="19.000" />
  <rect class="deactivating" x="598.085" y="1160.000" width="0.000" height="19.000" />
  <text class="left" x="458.443" y="1174.000">automounter.service (521ms)</text>
  <rect class="activating" x="453.851" y="1180.000" width="7.111" height="19.000" />
  <rect class="active" x="460.962" y="1180.000" width="137.123" height="19.000" />
  <rect class="deactivating" x="598.085" y="1180.000" width="0.000" height="19.000" />
  <text class="left" x="458.851" y="1194.000">errmem.service (71ms)</text>
  <rect class="activating" x="498.715" y="1200.000" width="0.000" height="19.000" />
  <rect class="active" x="498.715" y="1200.000" width="99.370" height="19.000" />
  <rect class="deactivating" x="598.085" y="1200.000" width="0.000" height="19.000" />
  <text class="left" x="503.715" y="1214.000">dev-ttymxc2.device</text>
  <rect class="activating" x="498.718" y="1220.000" width="0.000" height="19.000" />
  <rect class="active" x="498.718" y="1220.000" width="99.367" height="19.000" />
  <rect class="deactivating" x="598.085" y="1220.000" width="0.000" height="19.000" />
  <text class="left" x="503.718" y="1234.000">sys-devices-soc0-soc.0-2100000.aips\x2dbus-21ec000.serial-tty-ttymxc2.device</text>
  <rect class="activating" x="498.931" y="1240.000" width="0.000" height="19.000" />
  <rect class="active" x="498.931" y="1240.000" width="99.154" height="19.000" />
  <rect class="deactivating" x="598.085" y="1240.000" width="0.000" height="19.000" />
  <text class="left" x="503.931" y="1254.000">dev-ttymxc3.device</text>
  <rect class="activating" x="498.933" y="1260.000" width="0.000" height="19.000" />
  <rect class="active" x="498.933" y="1260.000" width="99.152" height="19.000" />
  <rect class="deactivating" x="598.085" y="1260.000" width="0.000" height="19.000" />
  <text class="left" x="503.933" y="1274.000">sys-devices-soc0-soc.0-2100000.aips\x2dbus-21f0000.serial-tty-ttymxc3.device</text>
  <rect class="activating" x="510.190" y="1280.000" width="0.000" height="19.000" />
  <rect class="active" x="510.190" y="1280.000" width="87.895" height="19.000" />
  <rect class="deactivating" x="598.085" y="1280.000" width="0.000" height="19.000" />
  <text class="left" x="515.190" y="1294.000">sys-devices-soc0-sound\x2dspdif.18-sound-card2.device</text>
  <rect class="activating" x="513.283" y="1300.000" width="0.000" height="19.000" />
  <rect class="active" x="513.283" y="1300.000" width="84.802" height="19.000" />
  <rect class="deactivating" x="598.085" y="1300.000" width="0.000" height="19.000" />
  <text class="left" x="518.283" y="1314.000">sys-subsystem-net-devices-eth0.device</text>
  <rect class="activating" x="513.286" y="1320.000" width="0.000" height="19.000" />
  <rect class="active" x="513.286" y="1320.000" width="84.799" height="19.000" />
  <rect class="deactivating" x="598.085" y="1320.000" width="0.000" height="19.000" />
  <text class="left" x="518.286" y="1334.000">sys-devices-soc0-soc.0-2100000.aips\x2dbus-2188000.ethernet-net-eth0.device</text>
  <rect class="activating" x="524.034" y="1340.000" width="0.000" height="19.000" />
  <rect class="active" x="524.034" y="1340.000" width="74.051" height="19.000" />
  <rect class="deactivating" x="598.085" y="1340.000" width="0.000" height="19.000" />
  <text class="left" x="529.034" y="1354.000">dev-disk-by\x2dpath-platform\x2d2198000.usdhc.device</text>
  <rect class="activating" x="524.036" y="1360.000" width="0.000" height="19.000" />
  <rect class="active" x="524.036" y="1360.000" width="74.049" height="19.000" />
  <rect class="deactivating" x="598.085" y="1360.000" width="0.000" height="19.000" />
  <text class="left" x="529.036" y="1374.000">dev-disk-by\x2did-mmc\x2dSU16G_0x0675354e.device</text>
  <rect class="activating" x="524.037" y="1380.000" width="0.000" height="19.000" />
  <rect class="active" x="524.037" y="1380.000" width="74.048" height="19.000" />
  <rect class="deactivating" x="598.085" y="1380.000" width="0.000" height="19.000" />
  <text class="left" x="529.037" y="1394.000">dev-mmcblk0.device</text>
  <rect class="activating" x="524.038" y="1400.000" width="0.000" height="19.000" />
  <rect class="active" x="524.038" y="1400.000" width="74.047" height="19.000" />
  <rect class="deactivating" x="598.085" y="1400.000" width="0.000" height="19.000" />
  <text class="left" x="529.038" y="1414.000">sys-devices-soc0-soc.0-2100000.aips\x2dbus-2198000.usdhc-mmc_host-mmc0-mmc0:aaaa-block-mmcblk0.device</text>
  <rect class="activating" x="526.493" y="1420.000" width="0.000" height="19.000" />
  <rect class="active" x="526.493" y="1420.000" width="71.591" height="19.000" />
  <rect class="deactivating" x="598.085" y="1420.000" width="0.000" height="19.000" />
  <text class="left" x="531.493" y="1434.000">dev-disk-by\x2dpath-platform\x2d2198000.usdhc\x2dpart4.device</text>
  <rect class="activating" x="526.495" y="1440.000" width="0.000" height="19.000" />
  <rect class="active" x="526.495" y="1440.000" width="71.590" height="19.000" />
  <rect class="deactivating" x="598.085" y="1440.000" width="0.000" height="19.000" />
  <text class="left" x="531.495" y="1454.000">dev-disk-by\x2did-mmc\x2dSU16G_0x0675354e\x2dpart4.device</text>
  <rect class="activating" x="526.496" y="1460.000" width="0.000" height="19.000" />
  <rect class="active" x="526.496" y="1460.000" width="71.589" height="19.000" />
  <rect class="deactivating" x="598.085" y="1460.000" width="0.000" height="19.000" />
  <text class="left" x="531.496" y="1474.000">dev-mmcblk0p4.device</text>
  <rect class="activating" x="526.497" y="1480.000" width="0.000" height="19.000" />
  <rect class="active" x="526.497" y="1480.000" width="71.588" height="19.000" />
  <rect class="deactivating" x="598.085" y="1480.000" width="0.000" height="19.000" />
  <text class="left" x="531.497" y="1494.000">sys-devices-soc0-soc.0-2100000.aips\x2dbus-2198000.usdhc-mmc_host-mmc0-mmc0:aaaa-block-mmcblk0-mmcblk0p4.device</text>
  <rect class="activating" x="544.424" y="1500.000" width="0.000" height="19.000" />
  <rect class="active" x="544.424" y="1500.000" width="53.661" height="19.000" />
  <rect class="deactivating" x="598.085" y="1500.000" width="0.000" height="19.000" />
  <text class="left" x="549.424" y="1514.000">dev-disk-by\x2dpath-platform\x2d2198000.usdhc\x2dpart6.device</text>
  <rect class="activating" x="544.427" y="1520.000" width="0.000" height="19.000" />
  <rect class="active" x="544.427" y="1520.000" width="53.658" height="19.000" />
  <rect class="deactivating" x="598.085" y="1520.000" width="0.000" height="19.000" />
  <text class="left" x="549.427" y="1534.000">dev-disk-by\x2did-mmc\x2dSU16G_0x0675354e\x2dpart6.device</text>
  <rect class="activating" x="544.428" y="1540.000" width="0.000" height="19.000" />
  <rect class="active" x="544.428" y="1540.000" width="53.657" height="19.000" />
  <rect class="deactivating" x="598.085" y="1540.000" width="0.000" height="19.000" />
  <text class="left" x="549.428" y="1554.000">dev-mmcblk0p6.device</text>
  <rect class="activating" x="544.429" y="1560.000" width="0.000" height="19.000" />
  <rect class="active" x="544.429" y="1560.000" width="53.656" height="19.000" />
  <rect class="deactivating" x="598.085" y="1560.000" width="0.000" height="19.000" />
  <text class="left" x="549.429" y="1574.000">sys-devices-soc0-soc.0-2100000.aips\x2dbus-2198000.usdhc-mmc_host-mmc0-mmc0:aaaa-block-mmcblk0-mmcblk0p6.device</text>
  <rect class="activating" x="545.067" y="1580.000" width="0.000" height="19.000" />
  <rect class="active" x="545.067" y="1580.000" width="53.018" height="19.000" />
  <rect class="deactivating" x="598.085" y="1580.000" width="0.000" height="19.000" />
  <text class="left" x="550.067" y="1594.000">dev-disk-by\x2dpath-platform\x2d2198000.usdhc\x2dpart1.device</text>
  <rect class="activating" x="545.068" y="1600.000" width="0.000" height="19.000" />
  <rect class="active" x="545.068" y="1600.000" width="53.016" height="19.000" />
  <rect class="deactivating" x="598.085" y="1600.000" width="0.000" height="19.000" />
  <text class="left" x="550.068" y="1614.000">dev-disk-by\x2did-mmc\x2dSU16G_0x0675354e\x2dpart1.device</text>
  <rect class="activating" x="545.069" y="1620.000" width="0.000" height="19.000" />
  <rect class="active" x="545.069" y="1620.000" width="53.016" height="19.000" />
  <rect class="deactivating" x="598.085" y="1620.000" width="0.000" height="19.000" />
  <text class="left" x="550.069" y="1634.000">dev-mmcblk0p1.device</text>
  <rect class="activating" x="545.070" y="1640.000" width="0.000" height="19.000" />
  <rect class="active" x="545.070" y="1640.000" width="53.015" height="19.000" />
  <rect class="deactivating" x="598.085" y="1640.000" width="0.000" height="19.000" />
  <text class="left" x="550.070" y="1654.000">sys-devices-soc0-soc.0-2100000.aips\x2dbus-2198000.usdhc-mmc_host-mmc0-mmc0:aaaa-block-mmcblk0-mmcblk0p1.device</text>
  <rect class="activating" x="545.640" y="1660.000" width="0.000" height="19.000" />
  <rect class="active" x="545.640" y="1660.000" width="52.444" height="19.000" />
  <rect class="deactivating" x="598.085" y="1660.000" width="0.000" height="19.000" />
  <text class="left" x="550.640" y="1674.000">dev-disk-by\x2duuid-EF38\x2dD38F.device</text>
  <rect class="activating" x="545.643" y="1680.000" width="0.000" height="19.000" />
  <rect class="active" x="545.643" y="1680.000" width="52.442" height="19.000" />
  <rect class="deactivating" x="598.085" y="1680.000" width="0.000" height="19.000" />
  <text class="left" x="550.643" y="1694.000">dev-disk-by\x2dpath-platform\x2d2198000.usdhc\x2dpart2.device</text>
  <rect class="activating" x="545.644" y="1700.000" width="0.000" height="19.000" />
  <rect class="active" x="545.644" y="1700.000" width="52.441" height="19.000" />
  <rect class="deactivating" x="598.085" y="1700.000" width="0.000" height="19.000" />
  <text class="left" x="550.644" y="1714.000">dev-disk-by\x2dlabel-mx6q\x2dBOOT.device</text>
  <rect class="activating" x="545.645" y="1720.000" width="0.000" height="19.000" />
  <rect class="active" x="545.645" y="1720.000" width="52.440" height="19.000" />
  <rect class="deactivating" x="598.085" y="1720.000" width="0.000" height="19.000" />
  <text class="left" x="550.645" y="1734.000">dev-disk-by\x2did-mmc\x2dSU16G_0x0675354e\x2dpart2.device</text>
  <rect class="activating" x="545.646" y="1740.000" width="0.000" height="19.000" />
  <rect class="active" x="545.646" y="1740.000" width="52.439" height="19.000" />
  <rect class="deactivating" x="598.085" y="1740.000" width="0.000" height="19.000" />
  <text class="left" x="550.646" y="1754.000">dev-mmcblk0p2.device</text>
  <rect class="activating" x="545.647" y="1760.000" width="0.000" height="19.000" />
  <rect class="active" x="545.647" y="1760.000" width="52.438" height="19.000" />
  <rect class="deactivating" x="598.085" y="1760.000" width="0.000" height="19.000" />
  <text class="left" x="550.647" y="1774.000">sys-devices-soc0-soc.0-2100000.aips\x2dbus-2198000.usdhc-mmc_host-mmc0-mmc0:aaaa-block-mmcblk0-mmcblk0p2.device</text>
  <rect class="activating" x="553.830" y="1780.000" width="0.000" height="19.000" />
  <rect class="active" x="553.830" y="1780.000" width="44.254" height="19.000" />
  <rect class="deactivating" x="598.085" y="1780.000" width="0.000" height="19.000" />
  <text class="left" x="558.830" y="1794.000">late-services.target</text>
  <rect class="activating" x="556.061" y="1800.000" width="0.000" height="19.000" />
  <rect class="active" x="556.061" y="1800.000" width="42.024" height="19.000" />
  <rect class="deactivating" x="598.085" y="1800.000" width="0.000" height="19.000" />
  <text class="left" x="561.061" y="1814.000">multi-user.target</text>
  <rect class="activating" x="556.102" y="1820.000" width="0.000" height="19.000" />
  <rect class="active" x="556.102" y="1820.000" width="41.983" height="19.000" />
  <rect class="deactivating" x="598.085" y="1820.000" width="0.000" height="19.000" />
  <text class="left" x="561.102" y="1834.000">lazy.target</text>
  <rect class="activating" x="565.425" y="1840.000" width="0.000" height="19.000" />
  <rect class="active" x="565.425" y="1840.000" width="32.660" height="19.000" />
  <rect class="deactivating" x="598.085" y="1840.000" width="0.000" height="19.000" />
  <text class="left" x="570.425" y="1854.000">dev-disk-by\x2duuid-d1ac520b\x2de928\x2d4af5\x2daea6\x2dbfccf3e0f0a5.device</text>
  <rect class="activating" x="565.427" y="1860.000" width="0.000" height="19.000" />
  <rect class="active" x="565.427" y="1860.000" width="32.658" height="19.000" />
  <rect class="deactivating" x="598.085" y="1860.000" width="0.000" height="19.000" />
  <text class="left" x="570.427" y="1874.000">dev-disk-by\x2dpath-platform\x2d2198000.usdhc\x2dpart3.device</text>
  <rect class="activating" x="565.428" y="1880.000" width="0.000" height="19.000" />
  <rect class="active" x="565.428" y="1880.000" width="32.657" height="19.000" />
  <rect class="deactivating" x="598.085" y="1880.000" width="0.000" height="19.000" />
  <text class="left" x="570.428" y="1894.000">dev-disk-by\x2dlabel-mx6q\x2dP1.device</text>
  <rect class="activating" x="565.429" y="1900.000" width="0.000" height="19.000" />
  <rect class="active" x="565.429" y="1900.000" width="32.656" height="19.000" />
  <rect class="deactivating" x="598.085" y="1900.000" width="0.000" height="19.000" />
  <text class="left" x="570.429" y="1914.000">dev-disk-by\x2did-mmc\x2dSU16G_0x0675354e\x2dpart3.device</text>
  <rect class="activating" x="565.430" y="1920.000" width="0.000" height="19.000" />
  <rect class="active" x="565.430" y="1920.000" width="32.655" height="19.000" />
  <rect class="deactivating" x="598.085" y="1920.000" width="0.000" height="19.000" />
  <text class="left" x="570.430" y="1934.000">dev-mmcblk0p3.device</text>
  <rect class="activating" x="565.430" y="1940.000" width="0.000" height="19.000" />
  <rect class="active" x="565.430" y="1940.000" width="32.654" height="19.000" />
  <rect class="deactivating" x="598.085" y="1940.000" width="0.000" height="19.000" />
  <text class="left" x="570.430" y="1954.000">sys-devices-soc0-soc.0-2100000.aips\x2dbus-2198000.usdhc-mmc_host-mmc0-mmc0:aaaa-block-mmcblk0-mmcblk0p3.device</text>
  <rect class="activating" x="569.460" y="1960.000" width="0.000" height="19.000" />
  <rect class="active" x="569.460" y="1960.000" width="28.625" height="19.000" />
  <rect class="deactivating" x="598.085" y="1960.000" width="0.000" height="19.000" />
  <text class="left" x="574.460" y="1974.000">dev-disk-by\x2duuid-243159ed\x2da01f\x2d412b\x2dafa3\x2db48d286438d7.device</text>
  <rect class="activating" x="569.463" y="1980.000" width="0.000" height="19.000" />
  <rect class="active" x="569.463" y="1980.000" width="28.622" height="19.000" />
  <rect class="deactivating" x="598.085" y="1980.000" width="0.000" height="19.000" />
  <text class="left" x="574.463" y="1994.000">dev-disk-by\x2dpath-platform\x2d2198000.usdhc\x2dpart5.device</text>
  <rect class="activating" x="569.464" y="2000.000" width="0.000" height="19.000" />
  <rect class="active" x="569.464" y="2000.000" width="28.621" height="19.000" />
  <rect class="deactivating" x="598.085" y="2000.000" width="0.000" height="19.000" />
  <text class="left" x="574.464" y="2014.000">dev-disk-by\x2dlabel-mx6q\x2dTEST.device</text>
  <rect class="activating" x="569.465" y="2020.000" width="0.000" height="19.000" />
  <rect class="active" x="569.465" y="2020.000" width="28.620" height="19.000" />
  <rect class="deactivating" x="598.085" y="2020.000" width="0.000" height="19.000" />
  <text class="left" x="574.465" y="2034.000">dev-disk-by\x2did-mmc\x2dSU16G_0x0675354e\x2dpart5.device</text>
  <rect class="activating" x="569.466" y="2040.000" width="0.000" height="19.000" />
  <rect class="active" x="569.466" y="2040.000" width="28.619" height="19.000" />
  <rect class="deactivating" x="598.085" y="2040.000" width="0.000" height="19.000" />
  <text class="left" x="574.466" y="2054.000">dev-mmcblk0p5.device</text>
  <rect class="activating" x="569.467" y="2060.000" width="0.000" height="19.000" />
  <rect class="active" x="569.467" y="2060.000" width="28.618" height="19.000" />
  <rect class="deactivating" x="598.085" y="2060.000" width="0.000" height="19.000" />
  <text class="left" x="574.467" y="2074.000">sys-devices-soc0-soc.0-2100000.aips\x2dbus-2198000.usdhc-mmc_host-mmc0-mmc0:aaaa-block-mmcblk0-mmcblk0p5.device</text>
  <rect class="activating" x="570.041" y="2080.000" width="0.000" height="19.000" />
  <rect class="active" x="570.041" y="2080.000" width="28.044" height="19.000" />
  <rect class="deactivating" x="598.085" y="2080.000" width="0.000" height="19.000" />
  <text class="left" x="575.041" y="2094.000">dev-disk-by\x2duuid-bef03c10\x2dade6\x2d4a32\x2d961d\x2d9369bef138e8.device</text>
  <rect class="activating" x="570.043" y="2100.000" width="0.000" height="19.000" />
  <rect class="active" x="570.043" y="2100.000" width="28.042" height="19.000" />
  <rect class="deactivating" x="598.085" y="2100.000" width="0.000" height="19.000" />
  <text class="left" x="575.043" y="2114.000">dev-disk-by\x2dpath-platform\x2d2198000.usdhc\x2dpart7.device</text>
  <rect class="activating" x="570.044" y="2120.000" width="0.000" height="19.000" />
  <rect class="active" x="570.044" y="2120.000" width="28.041" height="19.000" />
  <rect class="deactivating" x="598.085" y="2120.000" width="0.000" height="19.000" />
  <text class="left" x="575.044" y="2134.000">dev-disk-by\x2dlabel-mx6q\x2dP2.device</text>
  <rect class="activating" x="570.045" y="2140.000" width="0.000" height="19.000" />
  <rect class="active" x="570.045" y="2140.000" width="28.040" height="19.000" />
  <rect class="deactivating" x="598.085" y="2140.000" width="0.000" height="19.000" />
  <text class="left" x="575.045" y="2154.000">dev-disk-by\x2did-mmc\x2dSU16G_0x0675354e\x2dpart7.device</text>
  <rect class="activating" x="570.046" y="2160.000" width="0.000" height="19.000" />
  <rect class="active" x="570.046" y="2160.000" width="28.039" height="19.000" />
  <rect class="deactivating" x="598.085" y="2160.000" width="0.000" height="19.000" />
  <text class="left" x="575.046" y="2174.000">dev-mmcblk0p7.device</text>
  <rect class="activating" x="570.047" y="2180.000" width="0.000" height="19.000" />
  <rect class="active" x="570.047" y="2180.000" width="28.037" height="19.000" />
  <rect class="deactivating" x="598.085" y="2180.000" width="0.000" height="19.000" />
  <text class="left" x="575.047" y="2194.000">sys-devices-soc0-soc.0-2100000.aips\x2dbus-2198000.usdhc-mmc_host-mmc0-mmc0:aaaa-block-mmcblk0-mmcblk0p7.device</text>
  <rect class="activating" x="588.870" y="2200.000" width="0.000" height="19.000" />
  <rect class="active" x="588.870" y="2200.000" width="9.215" height="19.000" />
  <rect class="deactivating" x="598.085" y="2200.000" width="0.000" height="19.000" />
  <text class="left" x="593.870" y="2214.000">media-AAM_dev_mmcblk0p2.mount</text>
  <rect class="activating" x="592.784" y="2220.000" width="0.000" height="19.000" />
  <rect class="active" x="592.784" y="2220.000" width="5.301" height="19.000" />
  <rect class="deactivating" x="598.085" y="2220.000" width="0.000" height="19.000" />
  <text class="left" x="597.784" y="2234.000">media-AAM_dev_mmcblk0p5.mount</text>
  <rect class="activating" x="593.368" y="2240.000" width="0.000" height="19.000" />
  <rect class="active" x="593.368" y="2240.000" width="4.717" height="19.000" />
  <rect class="deactivating" x="598.085" y="2240.000" width="0.000" height="19.000" />
  <text class="left" x="598.368" y="2254.000">media-AAM_dev_mmcblk0p7.mount</text>
  <rect class="activating" x="597.987" y="2260.000" width="0.000" height="19.000" />
  <rect class="active" x="597.987" y="2260.000" width="0.098" height="19.000" />
  <rect class="deactivating" x="598.085" y="2260.000" width="0.000" height="19.000" />
  <text class="left" x="602.987" y="2274.000">adit-carplay-model.service</text>
</g>
<g transform="translate(20,100)">
  <rect class="activating" x="0.000" y="2300.000" width="30.000" height="19.000" />
  <text class="left" x="45.000" y="2314.000">Activating</text>
  <rect class="active" x="0.000" y="2320.000" width="30.000" height="19.000" />
  <text class="left" x="45.000" y="2334.000">Active</text>
  <rect class="deactivating" x="0.000" y="2340.000" width="30.000" height="19.000" />
  <text class="left" x="45.000" y="2354.000">Deactivating</text>
  <rect class="security" x="0.000" y="2360.000" width="30.000" height="19.000" />
  <text class="left" x="45.000" y="2374.000">Setting up security module</text>
  <rect class="generators" x="0.000" y="2380.000" width="30.000" height="19.000" />
  <text class="left" x="45.000" y="2394.000">Generators</text>
  <rect class="unitsload" x="0.000" y="2400.000" width="30.000" height="19.000" />
  <text class="left" x="45.000" y="2414.000">Loading unit files</text>
</g>

</svg>
