<?xml version="1.0" encoding="UTF-8" standalone="no"?>
<!DOCTYPE svg PUBLIC "-//W3C//DTD SVG 1.1//EN"
 "http://www.w3.org/Graphics/SVG/1.1/DTD/svg11.dtd">
<!-- Generated by graphviz version 2.26.3 (20100126.1600)
 -->
<!-- Title: embedded_linux_decision_tree Pages: 1 -->
<svg width="872pt" height="1008pt"
 viewBox="0.00 0.00 872.00 1008.00" xmlns="http://www.w3.org/2000/svg" xmlns:xlink="http://www.w3.org/1999/xlink">
<g id="graph1" class="graph" transform="scale(1 1) rotate(0) translate(4 1004)">
<title>embedded_linux_decision_tree</title>
<polygon fill="white" stroke="white" points="-4,5 -4,-1004 869,-1004 869,5 -4,5"/>
<text text-anchor="middle" x="432" y="-985.2" font-family="Times Roman,serif" font-size="12.00">Embedded Linux Decision Tree</text>
<!-- root -->
<g id="node1" class="node"><title>root</title>
<polygon fill="thistle" stroke="#8470ff" points="476,-962 406,-962 406,-926 476,-926 476,-962"/>
<text text-anchor="middle" x="441" y="-941.5" font-family="Times Roman,serif" font-size="10.00">Have MMU?</text>
</g>
<!-- NeedRTQ -->
<g id="node2" class="node"><title>NeedRTQ</title>
<polygon fill="thistle" stroke="#8470ff" points="370,-825 314,-825 314,-789 370,-789 370,-825"/>
<text text-anchor="middle" x="342" y="-811" font-family="Times Roman,serif" font-size="10.00">Real&#45;time</text>
<text text-anchor="middle" x="342" y="-798" font-family="Times Roman,serif" font-size="10.00">critical?</text>
</g>
<!-- root&#45;&gt;NeedRTQ -->
<g id="edge2" class="edge"><title>root&#45;&gt;NeedRTQ:n</title>
<path fill="none" stroke="#00cd66" d="M411.565,-925.828C384.662,-906.898 348.241,-874.523 342.715,-835.156"/>
<polygon fill="#00cd66" stroke="#00cd66" points="346.194,-834.73 342,-825 339.211,-835.221 346.194,-834.73"/>
<text text-anchor="middle" x="398.5" y="-897.2" font-family="Times Roman,serif" font-size="12.00">Yes</text>
</g>
<!-- NoMMU -->
<g id="node10" class="node"><title>NoMMU</title>
<a xlink:href="http://www.linux-arm.org/LinuxKernel/LinuxM3" xlink:title="ucLinux\non\nCortex&#45;M3">
<polygon fill="palegoldenrod" stroke="#00cd66" points="475,-873.468 387.82,-773.766 562.18,-773.766 475,-873.468"/>
<text text-anchor="middle" x="475" y="-817.5" font-family="Times Roman,serif" font-size="10.00">ucLinux</text>
<text text-anchor="middle" x="475" y="-804.5" font-family="Times Roman,serif" font-size="10.00">on</text>
<text text-anchor="middle" x="475" y="-791.5" font-family="Times Roman,serif" font-size="10.00">Cortex&#45;M3</text>
</a>
</g>
<!-- root&#45;&gt;NoMMU -->
<g id="edge4" class="edge"><title>root&#45;&gt;NoMMU:n</title>
<path fill="none" stroke="#00cd66" d="M455.419,-925.846C463.021,-914.775 471.327,-899.798 474.067,-884.258"/>
<polygon fill="#00cd66" stroke="#00cd66" points="477.58,-884.276 475,-874 470.608,-883.642 477.58,-884.276"/>
<text text-anchor="middle" x="481" y="-897.2" font-family="Times Roman,serif" font-size="12.00">No</text>
</g>
<!-- ProprietaryQ -->
<g id="node3" class="node"><title>ProprietaryQ</title>
<polygon fill="thistle" stroke="#8470ff" points="338,-688 270,-688 270,-652 338,-652 338,-688"/>
<text text-anchor="middle" x="304" y="-674" font-family="Times Roman,serif" font-size="10.00">Open source</text>
<text text-anchor="middle" x="304" y="-661" font-family="Times Roman,serif" font-size="10.00">important?</text>
</g>
<!-- NeedRTQ&#45;&gt;ProprietaryQ -->
<g id="edge8" class="edge"><title>NeedRTQ&#45;&gt;ProprietaryQ:n</title>
<path fill="none" stroke="#00cd66" d="M332.214,-788.62C321.966,-767.78 307.001,-732.244 304.394,-698.066"/>
<polygon fill="#00cd66" stroke="#00cd66" points="307.889,-697.855 304,-688 300.894,-698.129 307.889,-697.855"/>
<text text-anchor="middle" x="317.5" y="-711.2" font-family="Times Roman,serif" font-size="12.00">Yes</text>
</g>
<!-- LGPLQ -->
<g id="node4" class="node"><title>LGPLQ</title>
<polygon fill="thistle" stroke="#8470ff" points="446,-688 384,-688 384,-652 446,-652 446,-688"/>
<text text-anchor="middle" x="415" y="-667.5" font-family="Times Roman,serif" font-size="10.00">LGPL OK?</text>
</g>
<!-- NeedRTQ&#45;&gt;LGPLQ -->
<g id="edge6" class="edge"><title>NeedRTQ&#45;&gt;LGPLQ:n</title>
<path fill="none" stroke="#00cd66" d="M351.41,-788.801C358.615,-775.162 368.986,-756.149 379,-740 391.788,-719.377 409.326,-716.556 413.882,-698.086"/>
<polygon fill="#00cd66" stroke="#00cd66" points="417.377,-698.325 415,-688 410.42,-697.554 417.377,-698.325"/>
<text text-anchor="middle" x="419" y="-711.2" font-family="Times Roman,serif" font-size="12.00">No</text>
</g>
<!-- RealTimeProprietary -->
<g id="node11" class="node"><title>RealTimeProprietary</title>
<polygon fill="palegoldenrod" stroke="#00cd66" points="142,-599.468 59.061,-499.766 224.939,-499.766 142,-599.468"/>
<text text-anchor="middle" x="142" y="-543.5" font-family="Times Roman,serif" font-size="10.00">VxWorks,</text>
<text text-anchor="middle" x="142" y="-530.5" font-family="Times Roman,serif" font-size="10.00">Nucleus,</text>
<text text-anchor="middle" x="142" y="-517.5" font-family="Times Roman,serif" font-size="10.00">etc.</text>
</g>
<!-- ProprietaryQ&#45;&gt;RealTimeProprietary -->
<g id="edge12" class="edge"><title>ProprietaryQ&#45;&gt;RealTimeProprietary:n</title>
<path fill="none" stroke="#00cd66" d="M269.644,-662.446C227.663,-652.323 160.324,-632.896 145.118,-609.51"/>
<polygon fill="#00cd66" stroke="#00cd66" points="148.442,-608.412 142,-600 141.79,-610.593 148.442,-608.412"/>
<text text-anchor="middle" x="185" y="-623.2" font-family="Times Roman,serif" font-size="12.00">No</text>
</g>
<!-- RTEMS -->
<g id="node15" class="node"><title>RTEMS</title>
<a xlink:href="http://www.rtems.org/" xlink:title="RTEMS">
<polygon fill="palegoldenrod" stroke="#00cd66" points="304,-554 242.942,-522.5 365.058,-522.5 304,-554"/>
<text text-anchor="middle" x="304" y="-530.5" font-family="Times Roman,serif" font-size="10.00">RTEMS</text>
</a>
</g>
<!-- ProprietaryQ&#45;&gt;RTEMS -->
<g id="edge10" class="edge"><title>ProprietaryQ&#45;&gt;RTEMS:n</title>
<path fill="none" stroke="#00cd66" d="M304,-651.917C304,-631.325 304,-596.372 304,-564.293"/>
<polygon fill="#00cd66" stroke="#00cd66" points="307.5,-564 304,-554 300.5,-564 307.5,-564"/>
<text text-anchor="middle" x="313.5" y="-623.2" font-family="Times Roman,serif" font-size="12.00">Yes</text>
</g>
<!-- HeadlessQ -->
<g id="node5" class="node"><title>HeadlessQ</title>
<polygon fill="thistle" stroke="#8470ff" points="447,-551 383,-551 383,-515 447,-515 447,-551"/>
<text text-anchor="middle" x="415" y="-537" font-family="Times Roman,serif" font-size="10.00">Headless or</text>
<text text-anchor="middle" x="415" y="-524" font-family="Times Roman,serif" font-size="10.00">single&#45;app?</text>
</g>
<!-- LGPLQ&#45;&gt;HeadlessQ -->
<g id="edge14" class="edge"><title>LGPLQ&#45;&gt;HeadlessQ:n</title>
<path fill="none" stroke="#00cd66" d="M415,-651.855C415,-630.709 415,-594.413 415,-561.191"/>
<polygon fill="#00cd66" stroke="#00cd66" points="418.5,-561 415,-551 411.5,-561 418.5,-561"/>
<text text-anchor="middle" x="424.5" y="-623.2" font-family="Times Roman,serif" font-size="12.00">Yes</text>
</g>
<!-- EmbeddedBSD -->
<g id="node14" class="node"><title>EmbeddedBSD</title>
<a xlink:href="http://bsdmag.org/magazine/1067-embedded-bsd" xlink:title="embedded\nBSD">
<polygon fill="palegoldenrod" stroke="#00cd66" points="548,-581.083 465.061,-508.958 630.939,-508.958 548,-581.083"/>
<text text-anchor="middle" x="548" y="-537" font-family="Times Roman,serif" font-size="10.00">embedded</text>
<text text-anchor="middle" x="548" y="-524" font-family="Times Roman,serif" font-size="10.00">BSD</text>
</a>
</g>
<!-- LGPLQ&#45;&gt;EmbeddedBSD -->
<g id="edge16" class="edge"><title>LGPLQ&#45;&gt;EmbeddedBSD:n</title>
<path fill="none" stroke="#00cd66" d="M446.183,-663.598C482.653,-654.223 539.087,-633.119 547.053,-591.183"/>
<polygon fill="#00cd66" stroke="#00cd66" points="550.559,-591.281 548,-581 543.589,-590.633 550.559,-591.281"/>
<text text-anchor="middle" x="540" y="-623.2" font-family="Times Roman,serif" font-size="12.00">No</text>
</g>
<!-- HandsetTabletQ -->
<g id="node6" class="node"><title>HandsetTabletQ</title>
<polygon fill="thistle" stroke="#8470ff" points="352,-408 294,-408 294,-372 352,-372 352,-408"/>
<text text-anchor="middle" x="323" y="-394" font-family="Times Roman,serif" font-size="10.00">Handset</text>
<text text-anchor="middle" x="323" y="-381" font-family="Times Roman,serif" font-size="10.00">or Tablet?</text>
</g>
<!-- HeadlessQ&#45;&gt;HandsetTabletQ -->
<g id="edge18" class="edge"><title>HeadlessQ&#45;&gt;HandsetTabletQ:n</title>
<path fill="none" stroke="#00cd66" d="M405.014,-514.825C397.168,-501.03 385.652,-481.807 374,-466 355.86,-441.392 329.578,-441.838 324.046,-417.981"/>
<polygon fill="#00cd66" stroke="#00cd66" points="327.523,-417.581 323,-408 320.561,-418.31 327.523,-417.581"/>
<text text-anchor="middle" x="363" y="-437.2" font-family="Times Roman,serif" font-size="12.00">No</text>
</g>
<!-- LearnCurveQ -->
<g id="node9" class="node"><title>LearnCurveQ</title>
<polygon fill="thistle" stroke="#8470ff" points="495,-413.5 423,-413.5 423,-366.5 495,-366.5 495,-413.5"/>
<text text-anchor="middle" x="459" y="-400.5" font-family="Times Roman,serif" font-size="10.00">Value</text>
<text text-anchor="middle" x="459" y="-387.5" font-family="Times Roman,serif" font-size="10.00">simplicity</text>
<text text-anchor="middle" x="459" y="-374.5" font-family="Times Roman,serif" font-size="10.00">over features?</text>
</g>
<!-- HeadlessQ&#45;&gt;LearnCurveQ -->
<g id="edge20" class="edge"><title>HeadlessQ&#45;&gt;LearnCurveQ:n</title>
<path fill="none" stroke="#00cd66" d="M426.331,-514.812C438.197,-494.148 455.526,-458.79 458.544,-424.204"/>
<polygon fill="#00cd66" stroke="#00cd66" points="462.05,-424.146 459,-414 455.057,-423.834 462.05,-424.146"/>
<text text-anchor="middle" x="467.5" y="-437.2" font-family="Times Roman,serif" font-size="12.00">Yes</text>
</g>
<!-- ARMQ -->
<g id="node7" class="node"><title>ARMQ</title>
<polygon fill="thistle" stroke="#8470ff" points="215,-265 161,-265 161,-229 215,-229 215,-265"/>
<text text-anchor="middle" x="188" y="-244.5" font-family="Times Roman,serif" font-size="10.00">ARM?</text>
</g>
<!-- HandsetTabletQ&#45;&gt;ARMQ -->
<g id="edge30" class="edge"><title>HandsetTabletQ&#45;&gt;ARMQ:n</title>
<path fill="none" stroke="#00cd66" d="M293.707,-378.395C256.406,-361.591 195.896,-326.742 188.705,-275.178"/>
<polygon fill="#00cd66" stroke="#00cd66" points="192.183,-274.734 188,-265 185.2,-275.218 192.183,-274.734"/>
<text text-anchor="middle" x="248" y="-337.2" font-family="Times Roman,serif" font-size="12.00">No</text>
</g>
<!-- LibCQ -->
<g id="node8" class="node"><title>LibCQ</title>
<polygon fill="thistle" stroke="#8470ff" points="361,-270.5 285,-270.5 285,-223.5 361,-223.5 361,-270.5"/>
<text text-anchor="middle" x="323" y="-257.5" font-family="Times Roman,serif" font-size="10.00">Prefer</text>
<text text-anchor="middle" x="323" y="-244.5" font-family="Times Roman,serif" font-size="10.00">traditional</text>
<text text-anchor="middle" x="323" y="-231.5" font-family="Times Roman,serif" font-size="10.00">Linux to Java?</text>
</g>
<!-- HandsetTabletQ&#45;&gt;LibCQ -->
<g id="edge32" class="edge"><title>HandsetTabletQ&#45;&gt;LibCQ:n</title>
<path fill="none" stroke="#00cd66" d="M323,-371.855C323,-350.709 323,-314.413 323,-281.191"/>
<polygon fill="#00cd66" stroke="#00cd66" points="326.5,-281 323,-271 319.5,-281 326.5,-281"/>
<text text-anchor="middle" x="332.5" y="-337.2" font-family="Times Roman,serif" font-size="12.00">Yes</text>
</g>
<!-- AtomOrMIPS -->
<g id="node18" class="node"><title>AtomOrMIPS</title>
<a xlink:href="http://meego.com/" xlink:title="MeeGo">
<polygon fill="palegoldenrod" stroke="#00cd66" points="58,-69 0.134821,-37.5 115.865,-37.5 58,-69"/>
<text text-anchor="middle" x="58" y="-45.5" font-family="Times Roman,serif" font-size="10.00">MeeGo</text>
</a>
</g>
<!-- ARMQ&#45;&gt;AtomOrMIPS -->
<g id="edge36" class="edge"><title>ARMQ&#45;&gt;AtomOrMIPS:n</title>
<path fill="none" stroke="#00cd66" d="M162.316,-228.916C126.28,-201.313 64.4193,-144.897 58.4641,-79.1899"/>
<polygon fill="#00cd66" stroke="#00cd66" points="61.9514,-78.8304 58,-69 54.9587,-79.1489 61.9514,-78.8304"/>
<text text-anchor="middle" x="113.5" y="-151.2" font-family="Times Roman,serif" font-size="12.00">No,</text>
<text text-anchor="middle" x="113.5" y="-135.2" font-family="Times Roman,serif" font-size="12.00">Atom</text>
<text text-anchor="middle" x="113.5" y="-119.2" font-family="Times Roman,serif" font-size="12.00">or MIPS</text>
</g>
<!-- ARMnotHeadless -->
<g id="node19" class="node"><title>ARMnotHeadless</title>
<a xlink:href="http://linaro.org/" xlink:title="Linaro">
<polygon fill="palegoldenrod" stroke="#00cd66" points="188,-69 133.828,-37.5 242.172,-37.5 188,-69"/>
<text text-anchor="middle" x="188" y="-45.5" font-family="Times Roman,serif" font-size="10.00">Linaro</text>
</a>
</g>
<!-- ARMQ&#45;&gt;ARMnotHeadless -->
<g id="edge34" class="edge"><title>ARMQ&#45;&gt;ARMnotHeadless:n</title>
<path fill="none" stroke="#00cd66" d="M188,-228.807C188,-198.417 188,-135.125 188,-79.0196"/>
<polygon fill="#00cd66" stroke="#00cd66" points="191.5,-79 188,-69 184.5,-79 191.5,-79"/>
<text text-anchor="middle" x="197.5" y="-135.2" font-family="Times Roman,serif" font-size="12.00">Yes</text>
</g>
<!-- Android -->
<g id="node12" class="node"><title>Android</title>
<a xlink:href="http://developer.android.com/index.html" xlink:title="Android">
<polygon fill="palegoldenrod" stroke="#00cd66" points="323,-69 260.21,-37.5 385.79,-37.5 323,-69"/>
<text text-anchor="middle" x="323" y="-45.5" font-family="Times Roman,serif" font-size="10.00">Android</text>
</a>
</g>
<!-- LibCQ&#45;&gt;Android -->
<g id="edge26" class="edge"><title>LibCQ&#45;&gt;Android:n</title>
<path fill="none" stroke="#00cd66" d="M323,-223.39C323,-191.365 323,-132.072 323,-79.145"/>
<polygon fill="#00cd66" stroke="#00cd66" points="326.5,-79 323,-69 319.5,-79 326.5,-79"/>
<text text-anchor="middle" x="331" y="-135.2" font-family="Times Roman,serif" font-size="12.00">No</text>
</g>
<!-- UbuntuCore -->
<g id="node13" class="node"><title>UbuntuCore</title>
<a xlink:href="http://www.canonical.com/engineering-services/ubuntu-core" xlink:title="Ubuntu\nCore">
<polygon fill="palegoldenrod" stroke="#00cd66" points="472,-96.0833 404.118,-23.9584 539.882,-23.9584 472,-96.0833"/>
<text text-anchor="middle" x="472" y="-52" font-family="Times Roman,serif" font-size="10.00">Ubuntu</text>
<text text-anchor="middle" x="472" y="-39" font-family="Times Roman,serif" font-size="10.00">Core</text>
</a>
</g>
<!-- LibCQ&#45;&gt;UbuntuCore -->
<g id="edge28" class="edge"><title>LibCQ&#45;&gt;UbuntuCore:n</title>
<path fill="none" stroke="#00cd66" d="M337.438,-223.195C346.079,-209.835 357.742,-193.243 370,-180 407.4,-139.596 464.323,-152.737 471.293,-106.148"/>
<polygon fill="#00cd66" stroke="#00cd66" points="474.796,-106.219 472,-96 467.813,-105.732 474.796,-106.219"/>
<text text-anchor="middle" x="479.5" y="-135.2" font-family="Times Roman,serif" font-size="12.00">Yes</text>
</g>
<!-- Angstrom -->
<g id="node16" class="node"><title>Angstrom</title>
<a xlink:href="http://www.angstrom-distribution.org/" xlink:title="Angstrom\nand\nYocto">
<polygon fill="palegoldenrod" stroke="#00cd66" points="459,-313.468 378.891,-213.766 539.109,-213.766 459,-313.468"/>
<text text-anchor="middle" x="459" y="-257.5" font-family="Times Roman,serif" font-size="10.00">Angstrom</text>
<text text-anchor="middle" x="459" y="-244.5" font-family="Times Roman,serif" font-size="10.00">and</text>
<text text-anchor="middle" x="459" y="-231.5" font-family="Times Roman,serif" font-size="10.00">Yocto</text>
</a>
</g>
<!-- LearnCurveQ&#45;&gt;Angstrom -->
<g id="edge22" class="edge"><title>LearnCurveQ&#45;&gt;Angstrom:n</title>
<path fill="none" stroke="#00cd66" d="M459,-366.379C459,-354.189 459,-338.814 459,-324.065"/>
<polygon fill="#00cd66" stroke="#00cd66" points="462.5,-324 459,-314 455.5,-324 462.5,-324"/>
<text text-anchor="middle" x="467" y="-337.2" font-family="Times Roman,serif" font-size="12.00">No</text>
</g>
<!-- Buildroot -->
<g id="node17" class="node"><title>Buildroot</title>
<a xlink:href="http://buildroot.uclibc.org/" xlink:title="Buildroot">
<polygon fill="palegoldenrod" stroke="#00cd66" points="626,-268 557.054,-236.5 694.946,-236.5 626,-268"/>
<text text-anchor="middle" x="626" y="-244.5" font-family="Times Roman,serif" font-size="10.00">Buildroot</text>
</a>
</g>
<!-- LearnCurveQ&#45;&gt;Buildroot -->
<g id="edge24" class="edge"><title>LearnCurveQ&#45;&gt;Buildroot:n</title>
<path fill="none" stroke="#00cd66" d="M495.237,-380.971C541.667,-367.112 617.167,-335.936 625.286,-278.275"/>
<polygon fill="#00cd66" stroke="#00cd66" points="628.798,-278.219 626,-268 621.815,-277.733 628.798,-278.219"/>
<text text-anchor="middle" x="599.5" y="-337.2" font-family="Times Roman,serif" font-size="12.00">Yes</text>
</g>
<!-- Footer -->
<g id="node38" class="node"><title>Footer</title>
<a xlink:href="http://she-devel.com/" xlink:title="Alison Chaiken, alison@she-devel.com, distributed under CC&#45;BY&#45;SA license">
<ellipse fill="none" stroke="white" cx="711" cy="-48" rx="153.075" ry="18"/>
<text text-anchor="middle" x="711" y="-45.8" font-family="Times Roman,serif" font-size="8.00">Alison Chaiken, alison@she-devel.com, distributed under CC&#45;BY&#45;SA license</text>
</a>
</g>
</g>
</svg>
