<?xml version="1.0" encoding="UTF-8" standalone="no"?>
<!DOCTYPE svg PUBLIC "-//W3C//DTD SVG 1.1//EN"
 "http://www.w3.org/Graphics/SVG/1.1/DTD/svg11.dtd">
<!-- Generated by graphviz version 2.26.3 (20100126.1600)
 -->
<!-- Title: parallel_graphics_stacks Pages: 1 -->
<svg width="490pt" height="848pt"
 viewBox="0.00 0.00 490.00 848.00" xmlns="http://www.w3.org/2000/svg" xmlns:xlink="http://www.w3.org/1999/xlink">
<g id="graph1" class="graph" transform="scale(1 1) rotate(0) translate(4 844)">
<title>parallel_graphics_stacks</title>
<polygon fill="white" stroke="white" points="-4,5 -4,-844 487,-844 487,5 -4,5"/>
<text text-anchor="middle" x="241" y="-825.2" font-family="Times Roman,serif" font-size="12.00">Android and Linux Graphics Stacks</text>
<!-- xRoot -->
<g id="node2" class="node"><title>xRoot</title>
<ellipse fill="pink" stroke="pink" cx="100" cy="-784" rx="46.9013" ry="18"/>
<text text-anchor="middle" x="100" y="-781.5" font-family="Times Roman,serif" font-size="10.00">Linux program</text>
</g>
<!-- X11In -->
<g id="node6" class="node"><title>X11In</title>
<ellipse fill="thistle" stroke="#8470ff" cx="100" cy="-710" rx="27" ry="18"/>
<text text-anchor="middle" x="100" y="-707.5" font-family="Times Roman,serif" font-size="10.00">X11 </text>
</g>
<!-- xRoot&#45;&gt;X11In -->
<g id="edge13" class="edge"><title>xRoot&#45;&gt;X11In:n</title>
<path fill="none" stroke="#00cd66" d="M100,-765.841C100,-757.708 100,-747.765 100,-738.012"/>
<polygon fill="#00cd66" stroke="#00cd66" points="103.5,-738 100,-728 96.5001,-738 103.5,-738"/>
</g>
<!-- aRoot -->
<g id="node3" class="node"><title>aRoot</title>
<ellipse fill="pink" stroke="pink" cx="317" cy="-784" rx="41.8599" ry="18"/>
<text text-anchor="middle" x="317" y="-781.5" font-family="Times Roman,serif" font-size="10.00">Android app</text>
</g>
<!-- SurfaceFlingerIn -->
<g id="node5" class="node"><title>SurfaceFlingerIn</title>
<ellipse fill="thistle" stroke="#8470ff" cx="317" cy="-710" rx="48.0158" ry="18"/>
<text text-anchor="middle" x="317" y="-707.5" font-family="Times Roman,serif" font-size="10.00">SurfaceFlinger </text>
</g>
<!-- aRoot&#45;&gt;SurfaceFlingerIn -->
<g id="edge16" class="edge"><title>aRoot&#45;&gt;SurfaceFlingerIn:n</title>
<path fill="none" stroke="#00cd66" d="M317,-765.841C317,-757.708 317,-747.765 317,-738.012"/>
<polygon fill="#00cd66" stroke="#00cd66" points="320.5,-738 317,-728 313.5,-738 320.5,-738"/>
</g>
<!-- JNI -->
<g id="node11" class="node"><title>JNI</title>
<ellipse fill="thistle" stroke="#8470ff" cx="317" cy="-636" rx="27" ry="18"/>
<text text-anchor="middle" x="317" y="-633.5" font-family="Times Roman,serif" font-size="10.00">JNI </text>
</g>
<!-- SurfaceFlingerIn&#45;&gt;JNI -->
<g id="edge18" class="edge"><title>SurfaceFlingerIn&#45;&gt;JNI:n</title>
<path fill="none" stroke="#00cd66" d="M317,-691.841C317,-683.708 317,-673.765 317,-664.012"/>
<polygon fill="#00cd66" stroke="#00cd66" points="320.5,-664 317,-654 313.5,-664 320.5,-664"/>
</g>
<!-- EGL -->
<g id="node8" class="node"><title>EGL</title>
<ellipse fill="thistle" stroke="#8470ff" cx="100" cy="-556" rx="62.9325" ry="24.0416"/>
<text text-anchor="middle" x="100" y="-560" font-family="Times Roman,serif" font-size="10.00">EGL (embedded)</text>
<text text-anchor="middle" x="100" y="-547" font-family="Times Roman,serif" font-size="10.00">or GLX (desktop)</text>
</g>
<!-- X11In&#45;&gt;EGL -->
<g id="edge14" class="edge"><title>X11In&#45;&gt;EGL:n</title>
<path fill="none" stroke="#00cd66" d="M100,-691.914C100,-668.959 100,-627.84 100,-590.434"/>
<polygon fill="#00cd66" stroke="#00cd66" points="103.5,-590 100,-580 96.5001,-590 103.5,-590"/>
</g>
<!-- OpenGLES -->
<g id="node15" class="node"><title>OpenGLES</title>
<ellipse fill="thistle" stroke="#8470ff" cx="40" cy="-446" rx="40.1272" ry="18"/>
<text text-anchor="middle" x="40" y="-443.5" font-family="Times Roman,serif" font-size="10.00">OpenGLES </text>
</g>
<!-- EGL&#45;&gt;OpenGLES -->
<g id="edge22" class="edge"><title>EGL&#45;&gt;OpenGLES:n</title>
<path fill="none" stroke="#00cd66" d="M74.9022,-533.626C60.5159,-518.573 44.5836,-497.287 40.8253,-474.06"/>
<polygon fill="#00cd66" stroke="#00cd66" points="44.306,-473.68 40,-464 37.3295,-474.253 44.306,-473.68"/>
<text text-anchor="middle" x="66" y="-495.2" font-family="Times Roman,serif" font-size="12.00" fill="#00cd66">3D</text>
</g>
<!-- OpenVG -->
<g id="node17" class="node"><title>OpenVG</title>
<ellipse fill="thistle" stroke="#8470ff" cx="132" cy="-446" rx="33.9733" ry="18"/>
<text text-anchor="middle" x="132" y="-443.5" font-family="Times Roman,serif" font-size="10.00">OpenVG </text>
</g>
<!-- EGL&#45;&gt;OpenVG -->
<g id="edge24" class="edge"><title>EGL&#45;&gt;OpenVG:n</title>
<path fill="none" stroke="#00cd66" d="M113.2,-532.184C120.81,-516.534 129.292,-495.112 131.469,-473.989"/>
<polygon fill="#00cd66" stroke="#00cd66" points="134.964,-474.172 132,-464 127.974,-473.8 134.964,-474.172"/>
<text text-anchor="middle" x="139" y="-495.2" font-family="Times Roman,serif" font-size="12.00" fill="#00cd66">2D</text>
</g>
<!-- aEGL -->
<g id="node9" class="node"><title>aEGL</title>
<ellipse fill="thistle" stroke="#8470ff" cx="317" cy="-556" rx="27" ry="18"/>
<text text-anchor="middle" x="317" y="-553.5" font-family="Times Roman,serif" font-size="10.00">EGL</text>
</g>
<!-- aOpenGLES -->
<g id="node16" class="node"><title>aOpenGLES</title>
<ellipse fill="thistle" stroke="#8470ff" cx="232" cy="-446" rx="40.1272" ry="18"/>
<text text-anchor="middle" x="232" y="-443.5" font-family="Times Roman,serif" font-size="10.00">OpenGLES </text>
</g>
<!-- aEGL&#45;&gt;aOpenGLES -->
<g id="edge26" class="edge"><title>aEGL&#45;&gt;aOpenGLES:n</title>
<path fill="none" stroke="#00cd66" d="M295.551,-544.866C272.731,-531.462 239.079,-506.657 232.969,-474.285"/>
<polygon fill="#00cd66" stroke="#00cd66" points="236.423,-473.627 232,-464 229.454,-474.284 236.423,-473.627"/>
<text text-anchor="middle" x="263" y="-495.2" font-family="Times Roman,serif" font-size="12.00" fill="#00cd66">3D</text>
</g>
<!-- Skia -->
<g id="node18" class="node"><title>Skia</title>
<ellipse fill="thistle" stroke="#8470ff" cx="317" cy="-446" rx="27" ry="18"/>
<text text-anchor="middle" x="317" y="-443.5" font-family="Times Roman,serif" font-size="10.00">Skia</text>
</g>
<!-- aEGL&#45;&gt;Skia -->
<g id="edge28" class="edge"><title>aEGL&#45;&gt;Skia:n</title>
<path fill="none" stroke="#00cd66" d="M317,-537.672C317,-521.498 317,-496.991 317,-474.05"/>
<polygon fill="#00cd66" stroke="#00cd66" points="320.5,-474 317,-464 313.5,-474 320.5,-474"/>
<text text-anchor="middle" x="325" y="-495.2" font-family="Times Roman,serif" font-size="12.00" fill="#00cd66">2D</text>
</g>
<!-- agl -->
<g id="node19" class="node"><title>agl</title>
<ellipse fill="thistle" stroke="#8470ff" cx="389" cy="-446" rx="27" ry="18"/>
<text text-anchor="middle" x="389" y="-443.5" font-family="Times Roman,serif" font-size="10.00">agl</text>
</g>
<!-- aEGL&#45;&gt;agl -->
<g id="edge30" class="edge"><title>aEGL&#45;&gt;agl:n</title>
<path fill="none" stroke="red" stroke-dasharray="5,2" d="M336.295,-543.222C355.456,-528.999 382.73,-504.054 388.072,-474.275"/>
<polygon fill="red" stroke="red" points="391.587,-474.274 389,-464 384.615,-473.645 391.587,-474.274"/>
<text text-anchor="middle" x="419.5" y="-503.2" font-family="Times Roman,serif" font-size="12.00" fill="red">SW rendering</text>
<text text-anchor="middle" x="419.5" y="-487.2" font-family="Times Roman,serif" font-size="12.00" fill="red">fallback</text>
</g>
<!-- JNI&#45;&gt;aEGL -->
<g id="edge20" class="edge"><title>JNI&#45;&gt;aEGL:n</title>
<path fill="none" stroke="#00cd66" d="M317,-617.823C317,-608.266 317,-596.099 317,-584.253"/>
<polygon fill="#00cd66" stroke="#00cd66" points="320.5,-584 317,-574 313.5,-584 320.5,-584"/>
</g>
<!-- DRI2in -->
<g id="node12" class="node"><title>DRI2in</title>
<ellipse fill="thistle" stroke="#8470ff" cx="88" cy="-358" rx="27" ry="18"/>
<text text-anchor="middle" x="88" y="-355.5" font-family="Times Roman,serif" font-size="10.00">DRI2 </text>
</g>
<!-- DRM -->
<g id="node22" class="node"><title>DRM</title>
<ellipse fill="palegoldenrod" stroke="#8470ff" cx="65" cy="-270" rx="35.8221" ry="18"/>
<text text-anchor="middle" x="65" y="-267.5" font-family="Times Roman,serif" font-size="10.00">DRM KM</text>
</g>
<!-- DRI2in&#45;&gt;DRM -->
<g id="edge59" class="edge"><title>DRI2in:w&#45;&gt;DRM:w</title>
<path fill="none" stroke="#00cd66" d="M59,-358C21.5525,-358 -6.59688,-285.727 19.2095,-272.175"/>
<polygon fill="#00cd66" stroke="#00cd66" points="19.9972,-275.586 29,-270 18.4789,-268.752 19.9972,-275.586"/>
<text text-anchor="middle" x="27" y="-311.2" font-family="Times Roman,serif" font-size="12.00" fill="#00cd66">data</text>
</g>
<!-- GPU -->
<g id="node23" class="node"><title>GPU</title>
<ellipse fill="palegoldenrod" stroke="#8470ff" cx="171" cy="-270" rx="33.9733" ry="18"/>
<text text-anchor="middle" x="171" y="-267.5" font-family="Times Roman,serif" font-size="10.00">GPU KM</text>
</g>
<!-- DRI2in&#45;&gt;GPU -->
<g id="edge54" class="edge"><title>DRI2in:e&#45;&gt;GPU:e</title>
<path fill="none" stroke="blue" d="M115,-358C149.291,-358 144.08,-325.909 172,-306 185.602,-296.3 196.472,-302.366 205,-288 206.531,-285.42 208.039,-282.244 208.904,-279.282"/>
<polygon fill="blue" stroke="blue" points="212.103,-277.861 205,-270 205.651,-280.575 212.103,-277.861"/>
<text text-anchor="middle" x="199.5" y="-311.2" font-family="Times Roman,serif" font-size="12.00" fill="blue">instructions</text>
</g>
<!-- gralloc -->
<g id="node13" class="node"><title>gralloc</title>
<ellipse fill="thistle" stroke="#8470ff" cx="317" cy="-358" rx="27.1978" ry="18"/>
<text text-anchor="middle" x="317" y="-355.5" font-family="Times Roman,serif" font-size="10.00">gralloc</text>
</g>
<!-- aDRM -->
<g id="node24" class="node"><title>aDRM</title>
<ellipse fill="palegoldenrod" stroke="#8470ff" cx="281" cy="-270" rx="35.8221" ry="18"/>
<text text-anchor="middle" x="281" y="-267.5" font-family="Times Roman,serif" font-size="10.00">DRM KM</text>
</g>
<!-- gralloc&#45;&gt;aDRM -->
<g id="edge61" class="edge"><title>gralloc:w&#45;&gt;aDRM:w</title>
<path fill="none" stroke="#00cd66" d="M288,-358C248.55,-358 209.537,-285.727 234.968,-272.175"/>
<polygon fill="#00cd66" stroke="#00cd66" points="235.969,-275.54 245,-270 234.485,-268.699 235.969,-275.54"/>
<text text-anchor="middle" x="249" y="-311.2" font-family="Times Roman,serif" font-size="12.00" fill="#00cd66">data</text>
</g>
<!-- aGPU -->
<g id="node25" class="node"><title>aGPU</title>
<ellipse fill="palegoldenrod" stroke="#8470ff" cx="387" cy="-270" rx="33.9733" ry="18"/>
<text text-anchor="middle" x="387" y="-267.5" font-family="Times Roman,serif" font-size="10.00">GPU KM</text>
</g>
<!-- gralloc&#45;&gt;aGPU -->
<g id="edge56" class="edge"><title>gralloc:e&#45;&gt;aGPU:e</title>
<path fill="none" stroke="blue" d="M344,-358C391.909,-358 461.091,-283.213 430.892,-271.527"/>
<polygon fill="blue" stroke="blue" points="431.417,-268.067 421,-270 430.349,-274.985 431.417,-268.067"/>
<text text-anchor="middle" x="454.5" y="-311.2" font-family="Times Roman,serif" font-size="12.00" fill="blue">instructions</text>
</g>
<!-- OpenGLES&#45;&gt;DRI2in -->
<g id="edge32" class="edge"><title>OpenGLES&#45;&gt;DRI2in:n</title>
<path fill="none" stroke="#00cd66" d="M49.9298,-428.167C55.9063,-417.89 63.9063,-404.89 72,-394 75.5915,-389.168 80.205,-387.463 83.5545,-384.992"/>
<polygon fill="#00cd66" stroke="#00cd66" points="86.7054,-386.515 88,-376 80.4304,-383.413 86.7054,-386.515"/>
<text text-anchor="middle" x="80" y="-399.2" font-family="Times Roman,serif" font-size="12.00" fill="#00cd66">3D</text>
</g>
<!-- aOpenGLES&#45;&gt;gralloc -->
<g id="edge36" class="edge"><title>aOpenGLES&#45;&gt;gralloc:n</title>
<path fill="none" stroke="#00cd66" d="M263.651,-434.684C284.891,-425.1 310.006,-409.182 315.777,-385.999"/>
<polygon fill="#00cd66" stroke="#00cd66" points="319.26,-386.351 317,-376 312.312,-385.501 319.26,-386.351"/>
</g>
<!-- OpenVG&#45;&gt;DRI2in -->
<g id="edge34" class="edge"><title>OpenVG&#45;&gt;DRI2in:n</title>
<path fill="none" stroke="#00cd66" d="M114.862,-430.212C104.535,-419.209 92.7025,-403.464 89.0979,-386.268"/>
<polygon fill="#00cd66" stroke="#00cd66" points="92.5435,-385.571 88,-376 85.5832,-386.315 92.5435,-385.571"/>
<text text-anchor="middle" x="107" y="-399.2" font-family="Times Roman,serif" font-size="12.00" fill="#00cd66">2D</text>
</g>
<!-- Skia&#45;&gt;gralloc -->
<g id="edge40" class="edge"><title>Skia&#45;&gt;gralloc:n</title>
<path fill="none" stroke="#00cd66" d="M317,-427.87C317,-416.388 317,-400.955 317,-386.119"/>
<polygon fill="#00cd66" stroke="#00cd66" points="320.5,-386 317,-376 313.5,-386 320.5,-386"/>
</g>
<!-- agl&#45;&gt;gralloc -->
<g id="edge38" class="edge"><title>agl&#45;&gt;gralloc:n</title>
<path fill="none" stroke="#00cd66" d="M372.662,-431.218C357.062,-416.99 334.355,-395.96 323.393,-384.264"/>
<polygon fill="#00cd66" stroke="#00cd66" points="325.887,-381.768 317,-376 320.351,-386.051 325.887,-381.768"/>
</g>
<!-- DRM&#45;&gt;GPU -->
<g id="edge45" class="edge"><title>DRM&#45;&gt;GPU:w</title>
<path fill="none" stroke="#00cd66" d="M101.85,-270C109.576,-270 117.836,-270 125.916,-270"/>
<polygon fill="#00cd66" stroke="#00cd66" points="126,-273.5 136,-270 126,-266.5 126,-273.5"/>
</g>
<!-- DRI2out -->
<g id="node27" class="node"><title>DRI2out</title>
<ellipse fill="thistle" stroke="#8470ff" cx="65" cy="-196" rx="27" ry="18"/>
<text text-anchor="middle" x="65" y="-193.5" font-family="Times Roman,serif" font-size="10.00">DRI2 </text>
</g>
<!-- DRM&#45;&gt;DRI2out -->
<g id="edge64" class="edge"><title>DRM&#45;&gt;DRI2out:n</title>
<path fill="none" stroke="#00cd66" d="M65,-251.841C65,-243.708 65,-233.765 65,-224.012"/>
<polygon fill="#00cd66" stroke="#00cd66" points="68.5001,-224 65,-214 61.5001,-224 68.5001,-224"/>
</g>
<!-- GPU&#45;&gt;DRM -->
<g id="edge49" class="edge"><title>GPU&#45;&gt;DRM:e</title>
<path fill="none" stroke="#00cd66" d="M136.252,-270C128.546,-270 120.251,-270 112.132,-270"/>
<polygon fill="#00cd66" stroke="#00cd66" points="112,-266.5 102,-270 112,-273.5 112,-266.5"/>
</g>
<!-- aDRM&#45;&gt;aGPU -->
<g id="edge47" class="edge"><title>aDRM&#45;&gt;aGPU:w</title>
<path fill="none" stroke="#00cd66" d="M317.85,-270C325.576,-270 333.836,-270 341.916,-270"/>
<polygon fill="#00cd66" stroke="#00cd66" points="342,-273.5 352,-270 342,-266.5 342,-273.5"/>
</g>
<!-- aEGLout -->
<g id="node28" class="node"><title>aEGLout</title>
<ellipse fill="thistle" stroke="#8470ff" cx="281" cy="-196" rx="27" ry="18"/>
<text text-anchor="middle" x="281" y="-193.5" font-family="Times Roman,serif" font-size="10.00">EGL</text>
</g>
<!-- aDRM&#45;&gt;aEGLout -->
<g id="edge42" class="edge"><title>aDRM&#45;&gt;aEGLout:n</title>
<path fill="none" stroke="#00cd66" d="M281,-251.841C281,-243.708 281,-233.765 281,-224.012"/>
<polygon fill="#00cd66" stroke="#00cd66" points="284.5,-224 281,-214 277.5,-224 284.5,-224"/>
</g>
<!-- aGPU&#45;&gt;aDRM -->
<g id="edge51" class="edge"><title>aGPU&#45;&gt;aDRM:e</title>
<path fill="none" stroke="#00cd66" d="M352.252,-270C344.546,-270 336.251,-270 328.132,-270"/>
<polygon fill="#00cd66" stroke="#00cd66" points="328,-266.5 318,-270 328,-273.5 328,-266.5"/>
</g>
<!-- Compositor -->
<g id="node30" class="node"><title>Compositor</title>
<ellipse fill="thistle" stroke="#8470ff" cx="65" cy="-107" rx="45.9619" ry="33.234"/>
<text text-anchor="middle" x="65" y="-117.5" font-family="Times Roman,serif" font-size="10.00">Compositor</text>
<text text-anchor="middle" x="65" y="-104.5" font-family="Times Roman,serif" font-size="10.00">(mutter or</text>
<text text-anchor="middle" x="65" y="-91.5" font-family="Times Roman,serif" font-size="10.00">kwin)</text>
</g>
<!-- DRI2out&#45;&gt;Compositor -->
<g id="edge66" class="edge"><title>DRI2out&#45;&gt;Compositor:n</title>
<path fill="none" stroke="#00cd66" d="M65,-177.841C65,-169.708 65,-159.765 65,-150.012"/>
<polygon fill="#00cd66" stroke="#00cd66" points="68.5001,-150 65,-140 61.5001,-150 68.5001,-150"/>
</g>
<!-- SurfaceFlingerOut -->
<g id="node29" class="node"><title>SurfaceFlingerOut</title>
<ellipse fill="thistle" stroke="#8470ff" cx="281" cy="-107" rx="48.0158" ry="18"/>
<text text-anchor="middle" x="281" y="-104.5" font-family="Times Roman,serif" font-size="10.00">SurfaceFlinger </text>
</g>
<!-- aEGLout&#45;&gt;SurfaceFlingerOut -->
<g id="edge43" class="edge"><title>aEGLout&#45;&gt;SurfaceFlingerOut:n</title>
<path fill="none" stroke="#00cd66" d="M281,-177.907C281,-166.249 281,-150.489 281,-135.336"/>
<polygon fill="#00cd66" stroke="#00cd66" points="284.5,-135 281,-125 277.5,-135 284.5,-135"/>
</g>
<!-- aFramebuffer -->
<g id="node33" class="node"><title>aFramebuffer</title>
<ellipse fill="thistle" stroke="#8470ff" cx="281" cy="-18" rx="40.0132" ry="18"/>
<text text-anchor="middle" x="281" y="-15.5" font-family="Times Roman,serif" font-size="10.00">Framebuffer</text>
</g>
<!-- SurfaceFlingerOut&#45;&gt;aFramebuffer -->
<g id="edge70" class="edge"><title>SurfaceFlingerOut&#45;&gt;aFramebuffer:n</title>
<path fill="none" stroke="#00cd66" d="M281,-88.9071C281,-77.2492 281,-61.489 281,-46.3358"/>
<polygon fill="#00cd66" stroke="#00cd66" points="284.5,-46 281,-36 277.5,-46 284.5,-46"/>
</g>
<!-- Framebuffer -->
<g id="node32" class="node"><title>Framebuffer</title>
<ellipse fill="thistle" stroke="#8470ff" cx="65" cy="-18" rx="40.0132" ry="18"/>
<text text-anchor="middle" x="65" y="-15.5" font-family="Times Roman,serif" font-size="10.00">Framebuffer</text>
</g>
<!-- Compositor&#45;&gt;Framebuffer -->
<g id="edge68" class="edge"><title>Compositor&#45;&gt;Framebuffer:n</title>
<path fill="none" stroke="#00cd66" d="M65,-73.7691C65,-65.0208 65,-55.4001 65,-46.0245"/>
<polygon fill="#00cd66" stroke="#00cd66" points="68.5001,-46 65,-36 61.5001,-46 68.5001,-46"/>
</g>
</g>
</svg>
