<?xml version="1.0" encoding="UTF-8" standalone="no"?>
<!DOCTYPE svg PUBLIC "-//W3C//DTD SVG 1.1//EN"
 "http://www.w3.org/Graphics/SVG/1.1/DTD/svg11.dtd">
<!-- Generated by graphviz version 2.26.3 (20100126.1600)
 -->
<!-- Title: parallel_graphics_stacks Pages: 1 -->
<svg width="727pt" height="798pt"
 viewBox="0.00 0.00 727.00 798.00" xmlns="http://www.w3.org/2000/svg" xmlns:xlink="http://www.w3.org/1999/xlink">
<g id="graph1" class="graph" transform="scale(1 1) rotate(0) translate(4 794)">
<title>parallel_graphics_stacks</title>
<polygon fill="white" stroke="white" points="-4,5 -4,-794 724,-794 724,5 -4,5"/>
<text text-anchor="middle" x="359.5" y="-775.2" font-family="Times Roman,serif" font-size="12.00">Android and Linux Graphics Stacks</text>
<!-- xRoot -->
<g id="node2" class="node"><title>xRoot</title>
<ellipse fill="pink" stroke="pink" cx="243" cy="-728" rx="53.9477" ry="24.0416"/>
<text text-anchor="middle" x="243" y="-732" font-family="Times Roman,serif" font-size="10.00">Linux program</text>
<text text-anchor="middle" x="243" y="-719" font-family="Times Roman,serif" font-size="10.00">(X11 client)</text>
</g>
<!-- X11In -->
<g id="node6" class="node"><title>X11In</title>
<ellipse fill="thistle" stroke="#8470ff" cx="243" cy="-648" rx="37.0501" ry="18"/>
<text text-anchor="middle" x="243" y="-645.5" font-family="Times Roman,serif" font-size="10.00">X11 server</text>
</g>
<!-- xRoot&#45;&gt;X11In -->
<g id="edge14" class="edge"><title>xRoot&#45;&gt;X11In:n</title>
<path fill="none" stroke="#00cd66" d="M243,-703.856C243,-695.433 243,-685.699 243,-676.177"/>
<polygon fill="#00cd66" stroke="#00cd66" points="246.5,-676 243,-666 239.5,-676 246.5,-676"/>
</g>
<!-- aRoot -->
<g id="node3" class="node"><title>aRoot</title>
<ellipse fill="pink" stroke="pink" cx="584" cy="-728" rx="41.8599" ry="18"/>
<text text-anchor="middle" x="584" y="-725.5" font-family="Times Roman,serif" font-size="10.00">Android app</text>
</g>
<!-- SurfaceFlingerIn -->
<g id="node5" class="node"><title>SurfaceFlingerIn</title>
<ellipse fill="thistle" stroke="#8470ff" cx="584" cy="-648" rx="48.0158" ry="18"/>
<text text-anchor="middle" x="584" y="-645.5" font-family="Times Roman,serif" font-size="10.00">SurfaceFlinger </text>
</g>
<!-- aRoot&#45;&gt;SurfaceFlingerIn -->
<g id="edge17" class="edge"><title>aRoot&#45;&gt;SurfaceFlingerIn:n</title>
<path fill="none" stroke="#00cd66" d="M584,-709.823C584,-700.266 584,-688.099 584,-676.253"/>
<polygon fill="#00cd66" stroke="#00cd66" points="587.5,-676 584,-666 580.5,-676 587.5,-676"/>
</g>
<!-- aEGL -->
<g id="node9" class="node"><title>aEGL</title>
<ellipse fill="thistle" stroke="#8470ff" cx="584" cy="-568" rx="27" ry="18"/>
<text text-anchor="middle" x="584" y="-565.5" font-family="Times Roman,serif" font-size="10.00">EGL</text>
</g>
<!-- SurfaceFlingerIn&#45;&gt;aEGL -->
<g id="edge19" class="edge"><title>SurfaceFlingerIn&#45;&gt;aEGL:n</title>
<path fill="none" stroke="#00cd66" d="M584,-629.823C584,-620.266 584,-608.099 584,-596.253"/>
<polygon fill="#00cd66" stroke="#00cd66" points="587.5,-596 584,-586 580.5,-596 587.5,-596"/>
</g>
<!-- EGL -->
<g id="node8" class="node"><title>EGL</title>
<ellipse fill="thistle" stroke="#8470ff" cx="243" cy="-568" rx="62.9325" ry="24.0416"/>
<text text-anchor="middle" x="243" y="-572" font-family="Times Roman,serif" font-size="10.00">EGL (embedded)</text>
<text text-anchor="middle" x="243" y="-559" font-family="Times Roman,serif" font-size="10.00">or GLX (desktop)</text>
</g>
<!-- X11In&#45;&gt;EGL -->
<g id="edge15" class="edge"><title>X11In&#45;&gt;EGL:n</title>
<path fill="none" stroke="#00cd66" d="M243,-629.841C243,-621.708 243,-611.765 243,-602.012"/>
<polygon fill="#00cd66" stroke="#00cd66" points="246.5,-602 243,-592 239.5,-602 246.5,-602"/>
</g>
<!-- OpenGLES -->
<g id="node14" class="node"><title>OpenGLES</title>
<ellipse fill="thistle" stroke="#8470ff" cx="80" cy="-452" rx="80.1095" ry="24.0416"/>
<text text-anchor="middle" x="80" y="-456" font-family="Times Roman,serif" font-size="10.00">OpenGLES (embedded)</text>
<text text-anchor="middle" x="80" y="-443" font-family="Times Roman,serif" font-size="10.00">or OpenGL (desktop)</text>
</g>
<!-- EGL&#45;&gt;OpenGLES -->
<g id="edge21" class="edge"><title>EGL&#45;&gt;OpenGLES:n</title>
<path fill="none" stroke="#00cd66" d="M184.153,-559.241C140.747,-549.316 88.0276,-528.589 80.8286,-486.035"/>
<polygon fill="#00cd66" stroke="#00cd66" points="84.3111,-485.678 80,-476 77.3349,-486.254 84.3111,-485.678"/>
<text text-anchor="middle" x="112" y="-507.2" font-family="Times Roman,serif" font-size="12.00" fill="#00cd66">3D</text>
</g>
<!-- EXAin -->
<g id="node16" class="node"><title>EXAin</title>
<ellipse fill="thistle" stroke="#8470ff" cx="243" cy="-452" rx="65.0538" ry="24.0416"/>
<text text-anchor="middle" x="243" y="-456" font-family="Times Roman,serif" font-size="10.00">EXA (native X11)</text>
<text text-anchor="middle" x="243" y="-443" font-family="Times Roman,serif" font-size="10.00">or OpenVG</text>
</g>
<!-- EGL&#45;&gt;EXAin -->
<g id="edge23" class="edge"><title>EGL&#45;&gt;EXAin:n</title>
<path fill="none" stroke="#00cd66" stroke-dasharray="5,2" d="M243,-543.787C243,-527.916 243,-506.423 243,-486.142"/>
<polygon fill="#00cd66" stroke="#00cd66" points="246.5,-486 243,-476 239.5,-486 246.5,-486"/>
<text text-anchor="middle" x="251" y="-507.2" font-family="Times Roman,serif" font-size="12.00" fill="#00cd66">2D</text>
</g>
<!-- UXAin -->
<g id="node17" class="node"><title>UXAin</title>
<ellipse fill="thistle" stroke="#8470ff" cx="379" cy="-452" rx="52.9405" ry="18"/>
<text text-anchor="middle" x="379" y="-449.5" font-family="Times Roman,serif" font-size="10.00">UXA (Intel X11)</text>
</g>
<!-- EGL&#45;&gt;UXAin -->
<g id="edge25" class="edge"><title>EGL&#45;&gt;UXAin:n</title>
<path fill="none" stroke="#00cd66" stroke-dasharray="5,2" d="M294.028,-553.819C329.453,-540.787 371.443,-517.712 378.094,-480.359"/>
<polygon fill="#00cd66" stroke="#00cd66" points="381.615,-480.267 379,-470 374.642,-479.657 381.615,-480.267"/>
<text text-anchor="middle" x="382" y="-507.2" font-family="Times Roman,serif" font-size="12.00" fill="#00cd66">2D</text>
</g>
<!-- aOpenGLES -->
<g id="node15" class="node"><title>aOpenGLES</title>
<ellipse fill="thistle" stroke="#8470ff" cx="499" cy="-452" rx="40.1272" ry="18"/>
<text text-anchor="middle" x="499" y="-449.5" font-family="Times Roman,serif" font-size="10.00">OpenGLES </text>
</g>
<!-- aEGL&#45;&gt;aOpenGLES -->
<g id="edge27" class="edge"><title>aEGL&#45;&gt;aOpenGLES:n</title>
<path fill="none" stroke="#00cd66" d="M563.424,-556.339C540.528,-541.812 505.942,-514.67 499.912,-480.364"/>
<polygon fill="#00cd66" stroke="#00cd66" points="503.363,-479.655 499,-470 496.39,-480.268 503.363,-479.655"/>
<text text-anchor="middle" x="533" y="-507.2" font-family="Times Roman,serif" font-size="12.00" fill="#00cd66">3D</text>
</g>
<!-- Skia -->
<g id="node18" class="node"><title>Skia</title>
<ellipse fill="thistle" stroke="#8470ff" cx="584" cy="-452" rx="27" ry="18"/>
<text text-anchor="middle" x="584" y="-449.5" font-family="Times Roman,serif" font-size="10.00">Skia</text>
</g>
<!-- aEGL&#45;&gt;Skia -->
<g id="edge29" class="edge"><title>aEGL&#45;&gt;Skia:n</title>
<path fill="none" stroke="#00cd66" d="M584,-549.938C584,-532.655 584,-505.556 584,-480.303"/>
<polygon fill="#00cd66" stroke="#00cd66" points="587.5,-480 584,-470 580.5,-480 587.5,-480"/>
<text text-anchor="middle" x="592" y="-507.2" font-family="Times Roman,serif" font-size="12.00" fill="#00cd66">2D</text>
</g>
<!-- agl -->
<g id="node19" class="node"><title>agl</title>
<ellipse fill="thistle" stroke="#8470ff" cx="656" cy="-452" rx="27" ry="18"/>
<text text-anchor="middle" x="656" y="-449.5" font-family="Times Roman,serif" font-size="10.00">agl</text>
</g>
<!-- aEGL&#45;&gt;agl -->
<g id="edge31" class="edge"><title>aEGL&#45;&gt;agl:n</title>
<path fill="none" stroke="red" stroke-dasharray="5,2" d="M602.542,-554.703C621.875,-539.294 650.071,-511.898 655.188,-480.027"/>
<polygon fill="red" stroke="red" points="658.682,-480.25 656,-470 651.704,-479.685 658.682,-480.25"/>
<text text-anchor="middle" x="685.5" y="-515.2" font-family="Times Roman,serif" font-size="12.00" fill="red">SW rendering</text>
<text text-anchor="middle" x="685.5" y="-499.2" font-family="Times Roman,serif" font-size="12.00" fill="red">fallback</text>
</g>
<!-- DRI2in -->
<g id="node11" class="node"><title>DRI2in</title>
<ellipse fill="thistle" stroke="#8470ff" cx="197" cy="-358" rx="27" ry="18"/>
<text text-anchor="middle" x="197" y="-355.5" font-family="Times Roman,serif" font-size="10.00">DRI2 </text>
</g>
<!-- TTM -->
<g id="node22" class="node"><title>TTM</title>
<ellipse fill="palegoldenrod" stroke="#8470ff" cx="172" cy="-270" rx="49.9784" ry="18"/>
<text text-anchor="middle" x="172" y="-267.5" font-family="Times Roman,serif" font-size="10.00">TTM DRM KM</text>
</g>
<!-- DRI2in&#45;&gt;TTM -->
<g id="edge68" class="edge"><title>DRI2in:s&#45;&gt;TTM:n</title>
<path fill="none" stroke="#00cd66" d="M197,-340C197,-328.996 185.217,-331.689 180,-322 174.537,-311.856 172.777,-306.592 172.232,-298.205"/>
<polygon fill="#00cd66" stroke="#00cd66" points="175.726,-297.918 172,-288 168.728,-298.077 175.726,-297.918"/>
<text text-anchor="middle" x="190" y="-311.2" font-family="Times Roman,serif" font-size="12.00" fill="#00cd66">data</text>
</g>
<!-- GPU -->
<g id="node24" class="node"><title>GPU</title>
<ellipse fill="palegoldenrod" stroke="#8470ff" cx="292" cy="-270" rx="33.9733" ry="18"/>
<text text-anchor="middle" x="292" y="-267.5" font-family="Times Roman,serif" font-size="10.00">GPU KM</text>
</g>
<!-- DRI2in&#45;&gt;GPU -->
<g id="edge63" class="edge"><title>DRI2in:s&#45;&gt;GPU:n</title>
<path fill="none" stroke="blue" d="M197,-340C197,-320.139 209.23,-316.641 226,-306 247.862,-292.128 280.351,-310.877 289.514,-297.973"/>
<polygon fill="blue" stroke="blue" points="292.978,-298.55 292,-288 286.185,-296.857 292.978,-298.55"/>
<text text-anchor="middle" x="253.5" y="-311.2" font-family="Times Roman,serif" font-size="12.00" fill="blue">instructions</text>
</g>
<!-- gralloc -->
<g id="node12" class="node"><title>gralloc</title>
<ellipse fill="thistle" stroke="#8470ff" cx="584" cy="-358" rx="27.1978" ry="18"/>
<text text-anchor="middle" x="584" y="-355.5" font-family="Times Roman,serif" font-size="10.00">gralloc</text>
</g>
<!-- aDRM -->
<g id="node25" class="node"><title>aDRM</title>
<ellipse fill="palegoldenrod" stroke="#8470ff" cx="521" cy="-270" rx="35.8221" ry="18"/>
<text text-anchor="middle" x="521" y="-267.5" font-family="Times Roman,serif" font-size="10.00">DRM KM</text>
</g>
<!-- gralloc&#45;&gt;aDRM -->
<g id="edge70" class="edge"><title>gralloc:s&#45;&gt;aDRM:n</title>
<path fill="none" stroke="#00cd66" d="M584,-340C584,-324.967 540.795,-311.62 525.944,-297.167"/>
<polygon fill="#00cd66" stroke="#00cd66" points="528.827,-295.141 521,-288 522.666,-298.463 528.827,-295.141"/>
<text text-anchor="middle" x="576" y="-311.2" font-family="Times Roman,serif" font-size="12.00" fill="#00cd66">data</text>
</g>
<!-- aGPU -->
<g id="node26" class="node"><title>aGPU</title>
<ellipse fill="palegoldenrod" stroke="#8470ff" cx="627" cy="-270" rx="33.9733" ry="18"/>
<text text-anchor="middle" x="627" y="-267.5" font-family="Times Roman,serif" font-size="10.00">GPU KM</text>
</g>
<!-- gralloc&#45;&gt;aGPU -->
<g id="edge65" class="edge"><title>gralloc:s&#45;&gt;aGPU:n</title>
<path fill="none" stroke="blue" d="M584,-340C584,-313.994 616.337,-316.54 624.926,-298.118"/>
<polygon fill="blue" stroke="blue" points="628.421,-298.499 627,-288 621.563,-297.093 628.421,-298.499"/>
<text text-anchor="middle" x="645.5" y="-311.2" font-family="Times Roman,serif" font-size="12.00" fill="blue">instructions</text>
</g>
<!-- OpenGLES&#45;&gt;DRI2in -->
<g id="edge33" class="edge"><title>OpenGLES&#45;&gt;DRI2in:n</title>
<path fill="none" stroke="#00cd66" d="M118.959,-430.958C145.549,-416.099 178.225,-396.716 191.248,-384.414"/>
<polygon fill="#00cd66" stroke="#00cd66" points="194.246,-386.231 197,-376 188.467,-382.28 194.246,-386.231"/>
<text text-anchor="middle" x="186" y="-399.2" font-family="Times Roman,serif" font-size="12.00" fill="#00cd66">3D</text>
</g>
<!-- aOpenGLES&#45;&gt;gralloc -->
<g id="edge41" class="edge"><title>aOpenGLES&#45;&gt;gralloc:n</title>
<path fill="none" stroke="#00cd66" d="M522.227,-437.127C542.871,-423.211 571.214,-402.182 580.733,-385.895"/>
<polygon fill="#00cd66" stroke="#00cd66" points="584.188,-386.593 584,-376 577.541,-384.399 584.188,-386.593"/>
</g>
<!-- EXAin&#45;&gt;DRI2in -->
<g id="edge35" class="edge"><title>EXAin&#45;&gt;DRI2in:n</title>
<path fill="none" stroke="#00cd66" stroke-dasharray="5,2" d="M220.539,-429.462C210.869,-417.763 201.072,-402.527 197.99,-386.248"/>
<polygon fill="#00cd66" stroke="#00cd66" points="201.446,-385.617 197,-376 194.478,-386.29 201.446,-385.617"/>
<text text-anchor="middle" x="215" y="-399.2" font-family="Times Roman,serif" font-size="12.00" fill="#00cd66">2D</text>
</g>
<!-- GEM -->
<g id="node23" class="node"><title>GEM</title>
<ellipse fill="palegoldenrod" stroke="#8470ff" cx="413" cy="-270" rx="51.0937" ry="18"/>
<text text-anchor="middle" x="413" y="-267.5" font-family="Times Roman,serif" font-size="10.00">GEM DRM KM</text>
</g>
<!-- UXAin&#45;&gt;GEM -->
<g id="edge37" class="edge"><title>UXAin&#45;&gt;GEM:n</title>
<path fill="none" stroke="#00cd66" stroke-dasharray="5,2" d="M385.236,-434.051C394.438,-406.021 410.788,-349.717 412.796,-298.225"/>
<polygon fill="#00cd66" stroke="#00cd66" points="416.3,-298.068 413,-288 409.301,-297.928 416.3,-298.068"/>
<text text-anchor="middle" x="428" y="-355.2" font-family="Times Roman,serif" font-size="12.00" fill="#00cd66">2D data</text>
</g>
<!-- UXAin&#45;&gt;GPU -->
<g id="edge39" class="edge"><title>UXAin&#45;&gt;GPU:n</title>
<path fill="none" stroke="blue" stroke-dasharray="5,2" d="M362.226,-434.452C338.376,-407.688 297.028,-353.865 292.421,-298.067"/>
<polygon fill="blue" stroke="blue" points="295.915,-297.845 292,-288 288.921,-298.137 295.915,-297.845"/>
<text text-anchor="middle" x="355.5" y="-355.2" font-family="Times Roman,serif" font-size="12.00" fill="blue">2D instructions</text>
</g>
<!-- Skia&#45;&gt;gralloc -->
<g id="edge45" class="edge"><title>Skia&#45;&gt;gralloc:n</title>
<path fill="none" stroke="#00cd66" d="M584,-433.88C584,-421.129 584,-403.376 584,-386.41"/>
<polygon fill="#00cd66" stroke="#00cd66" points="587.5,-386 584,-376 580.5,-386 587.5,-386"/>
</g>
<!-- agl&#45;&gt;gralloc -->
<g id="edge43" class="edge"><title>agl&#45;&gt;gralloc:n</title>
<path fill="none" stroke="#00cd66" d="M640.731,-436.964C624.879,-421.242 600.894,-397.111 589.892,-384.303"/>
<polygon fill="#00cd66" stroke="#00cd66" points="592.642,-382.13 584,-376 586.933,-386.181 592.642,-382.13"/>
</g>
<!-- TTM&#45;&gt;GPU -->
<g id="edge50" class="edge"><title>TTM&#45;&gt;GPU:w</title>
<path fill="none" stroke="#00cd66" d="M222.79,-270C230.71,-270 238.934,-270 246.966,-270"/>
<polygon fill="#00cd66" stroke="#00cd66" points="247,-273.5 257,-270 247,-266.5 247,-273.5"/>
</g>
<!-- DRI2out -->
<g id="node28" class="node"><title>DRI2out</title>
<ellipse fill="thistle" stroke="#8470ff" cx="297" cy="-196" rx="27" ry="18"/>
<text text-anchor="middle" x="297" y="-193.5" font-family="Times Roman,serif" font-size="10.00">DRI2 </text>
</g>
<!-- TTM&#45;&gt;DRI2out -->
<g id="edge73" class="edge"><title>TTM:s&#45;&gt;DRI2out:n</title>
<path fill="none" stroke="#00cd66" stroke-dasharray="5,2" d="M172,-252C172,-198.017 280.04,-261.752 295.233,-224.323"/>
<polygon fill="#00cd66" stroke="#00cd66" points="298.763,-224.447 297,-214 291.863,-223.266 298.763,-224.447"/>
</g>
<!-- GEM&#45;&gt;GPU -->
<g id="edge56" class="edge"><title>GEM:w&#45;&gt;GPU:e</title>
<path fill="none" stroke="#00cd66" stroke-dasharray="5,2" d="M362,-270C350.455,-270 345.336,-270 337.105,-270"/>
<polygon fill="#00cd66" stroke="#00cd66" points="337,-266.5 327,-270 337,-273.5 337,-266.5"/>
</g>
<!-- UXAout -->
<g id="node29" class="node"><title>UXAout</title>
<ellipse fill="thistle" stroke="#8470ff" cx="410" cy="-196" rx="27" ry="18"/>
<text text-anchor="middle" x="410" y="-193.5" font-family="Times Roman,serif" font-size="10.00">UXA </text>
</g>
<!-- GEM&#45;&gt;UXAout -->
<g id="edge75" class="edge"><title>GEM:s&#45;&gt;UXAout:n</title>
<path fill="none" stroke="#00cd66" stroke-dasharray="5,2" d="M413,-252C413,-239.029 411.241,-233.576 410.417,-224.129"/>
<polygon fill="#00cd66" stroke="#00cd66" points="413.909,-223.847 410,-214 406.915,-224.136 413.909,-223.847"/>
</g>
<!-- GPU&#45;&gt;TTM -->
<g id="edge54" class="edge"><title>GPU&#45;&gt;TTM:e</title>
<path fill="none" stroke="#00cd66" d="M257.252,-270C249.546,-270 241.251,-270 233.132,-270"/>
<polygon fill="#00cd66" stroke="#00cd66" points="233,-266.5 223,-270 233,-273.5 233,-266.5"/>
</g>
<!-- GPU&#45;&gt;GEM -->
<g id="edge58" class="edge"><title>GPU:e&#45;&gt;GEM:w</title>
<path fill="none" stroke="#00cd66" stroke-dasharray="5,2" d="M327,-270C338.545,-270 343.664,-270 351.895,-270"/>
<polygon fill="#00cd66" stroke="#00cd66" points="352,-273.5 362,-270 352,-266.5 352,-273.5"/>
</g>
<!-- aDRM&#45;&gt;aGPU -->
<g id="edge52" class="edge"><title>aDRM&#45;&gt;aGPU:w</title>
<path fill="none" stroke="#00cd66" d="M557.85,-270C565.576,-270 573.836,-270 581.916,-270"/>
<polygon fill="#00cd66" stroke="#00cd66" points="582,-273.5 592,-270 582,-266.5 582,-273.5"/>
</g>
<!-- aEGLout -->
<g id="node30" class="node"><title>aEGLout</title>
<ellipse fill="thistle" stroke="#8470ff" cx="521" cy="-196" rx="27" ry="18"/>
<text text-anchor="middle" x="521" y="-193.5" font-family="Times Roman,serif" font-size="10.00">EGL</text>
</g>
<!-- aDRM&#45;&gt;aEGLout -->
<g id="edge47" class="edge"><title>aDRM&#45;&gt;aEGLout:n</title>
<path fill="none" stroke="#00cd66" d="M521,-251.841C521,-243.708 521,-233.765 521,-224.012"/>
<polygon fill="#00cd66" stroke="#00cd66" points="524.5,-224 521,-214 517.5,-224 524.5,-224"/>
</g>
<!-- aGPU&#45;&gt;aDRM -->
<g id="edge60" class="edge"><title>aGPU:w&#45;&gt;aDRM:e</title>
<path fill="none" stroke="#00cd66" stroke-dasharray="5,2" d="M592,-270C580.903,-270 575.918,-270 568.068,-270"/>
<polygon fill="#00cd66" stroke="#00cd66" points="568,-266.5 558,-270 568,-273.5 568,-266.5"/>
</g>
<!-- Compositor -->
<g id="node32" class="node"><title>Compositor</title>
<ellipse fill="thistle" stroke="#8470ff" cx="386" cy="-107" rx="45.9619" ry="33.234"/>
<text text-anchor="middle" x="386" y="-117.5" font-family="Times Roman,serif" font-size="10.00">Compositor</text>
<text text-anchor="middle" x="386" y="-104.5" font-family="Times Roman,serif" font-size="10.00">(mutter or</text>
<text text-anchor="middle" x="386" y="-91.5" font-family="Times Roman,serif" font-size="10.00">kwin)</text>
</g>
<!-- DRI2out&#45;&gt;Compositor -->
<g id="edge77" class="edge"><title>DRI2out:s&#45;&gt;Compositor:n</title>
<path fill="none" stroke="#00cd66" d="M297,-178C297,-139.022 370.095,-174.806 383.8,-149.846"/>
<polygon fill="#00cd66" stroke="#00cd66" points="387.235,-150.523 386,-140 380.404,-148.996 387.235,-150.523"/>
</g>
<!-- UXAout&#45;&gt;Compositor -->
<g id="edge79" class="edge"><title>UXAout:s&#45;&gt;Compositor:n</title>
<path fill="none" stroke="#00cd66" stroke-dasharray="5,2" d="M410,-178C410,-162.082 394.76,-160.088 388.568,-149.826"/>
<polygon fill="#00cd66" stroke="#00cd66" points="391.915,-148.79 386,-140 385.143,-150.56 391.915,-148.79"/>
</g>
<!-- SurfaceFlingerOut -->
<g id="node31" class="node"><title>SurfaceFlingerOut</title>
<ellipse fill="thistle" stroke="#8470ff" cx="521" cy="-107" rx="48.0158" ry="18"/>
<text text-anchor="middle" x="521" y="-104.5" font-family="Times Roman,serif" font-size="10.00">SurfaceFlinger </text>
</g>
<!-- aEGLout&#45;&gt;SurfaceFlingerOut -->
<g id="edge48" class="edge"><title>aEGLout&#45;&gt;SurfaceFlingerOut:n</title>
<path fill="none" stroke="#00cd66" d="M521,-177.907C521,-166.249 521,-150.489 521,-135.336"/>
<polygon fill="#00cd66" stroke="#00cd66" points="524.5,-135 521,-125 517.5,-135 524.5,-135"/>
</g>
<!-- aFramebuffer -->
<g id="node36" class="node"><title>aFramebuffer</title>
<ellipse fill="thistle" stroke="#8470ff" cx="521" cy="-18" rx="40.0132" ry="18"/>
<text text-anchor="middle" x="521" y="-15.5" font-family="Times Roman,serif" font-size="10.00">Framebuffer</text>
</g>
<!-- SurfaceFlingerOut&#45;&gt;aFramebuffer -->
<g id="edge83" class="edge"><title>SurfaceFlingerOut:s&#45;&gt;aFramebuffer:n</title>
<path fill="none" stroke="#00cd66" stroke-dasharray="5,2" d="M521,-89C521,-69.309 521,-61.9634 521,-46.3232"/>
<polygon fill="#00cd66" stroke="#00cd66" points="524.5,-46 521,-36 517.5,-46 524.5,-46"/>
</g>
<!-- Framebuffer -->
<g id="node35" class="node"><title>Framebuffer</title>
<ellipse fill="thistle" stroke="#8470ff" cx="386" cy="-18" rx="40.0132" ry="18"/>
<text text-anchor="middle" x="386" y="-15.5" font-family="Times Roman,serif" font-size="10.00">Framebuffer</text>
</g>
<!-- Compositor&#45;&gt;Framebuffer -->
<g id="edge81" class="edge"><title>Compositor:s&#45;&gt;Framebuffer:n</title>
<path fill="none" stroke="#00cd66" d="M386,-74C386,-61.0694 386,-55.5639 386,-46.1138"/>
<polygon fill="#00cd66" stroke="#00cd66" points="389.5,-46 386,-36 382.5,-46 389.5,-46"/>
</g>
</g>
</svg>
