<?xml version="1.0" encoding="iso-8859-1"?>
<!-- Generator: Adobe Illustrator 15.0.0, SVG Export Plug-In . SVG Version: 6.00 Build 0)  -->
<!DOCTYPE svg PUBLIC "-//W3C//DTD SVG 1.1//EN" "http://www.w3.org/Graphics/SVG/1.1/DTD/svg11.dtd">
<svg version="1.1" xmlns="http://www.w3.org/2000/svg" xmlns:xlink="http://www.w3.org/1999/xlink" x="0px" y="0px"
	 width="841.89px" height="595.28px" viewBox="0 0 841.89 595.28" style="enable-background:new 0 0 841.89 595.28;"
	 xml:space="preserve">
<g id="com">
	<path style="fill:#57575A;" d="M697.893,267.12c0-0.432,0-0.865-0.214-1.083c0-0.433,0-0.865,0-1.08c0-0.433,0-0.87,0-1.083
		c0.214-0.433,0.214-0.866,0.214-1.083c0.436-0.215,0.65-0.215,1.079-0.215c0.438,0,0.651,0,1.088,0c0.43,0,0.644,0,1.081,0
		c0.428,0,0.649,0,1.079,0.215c0,0.217,0,0.651,0,1.083c0.222,0.213,0.222,0.651,0.222,1.083c0,0.215,0,0.647-0.222,1.08
		c0,0.219,0,0.651,0,1.083c-0.43,0-0.651,0-1.079,0c-0.438,0-0.651,0-1.081,0c-0.437,0-0.65,0-1.088,0
		C698.543,267.12,698.328,267.12,697.893,267.12L697.893,267.12z M719.535,263.654c0.222,0.219,0.437,0.651,0.65,1.302
		c0,0.432,0.215,1.08,0.215,1.731c-1.508,0.432-3.239,0.865-5.192,0.865c-3.462,0-5.844-1.083-7.574-2.814
		c-1.516-1.948-2.382-4.327-2.382-7.574c0-1.516,0.215-2.814,0.65-4.112c0.216-1.302,0.866-2.382,1.731-3.248
		c0.866-0.865,1.73-1.735,3.033-2.167c1.294-0.647,2.595-0.865,4.112-0.865c1.08,0,2.159,0,3.025,0.217
		c0.65,0,1.516,0.215,2.381,0.647c0,0.432-0.214,0.866-0.214,1.516c-0.215,0.434-0.437,1.085-0.651,1.517
		c-1.079-0.432-2.597-0.651-4.112-0.651c-2.167,0-3.462,0.651-4.541,1.949c-1.088,1.297-1.517,3.028-1.517,5.195
		c0,2.378,0.65,4.328,1.731,5.411c1.079,1.08,2.596,1.73,4.541,1.73c0.865,0,1.516,0,2.167-0.219
		C718.241,264.086,718.893,263.873,719.535,263.654L719.535,263.654z M731.444,267.552c-1.518,0-3.033-0.433-4.113-0.865
		c-1.079-0.433-2.167-1.299-2.818-2.164c-0.865-0.87-1.509-1.949-1.73-3.248c-0.429-1.301-0.644-2.6-0.644-4.113
		c0-1.516,0.215-2.814,0.644-4.112c0.222-1.302,0.865-2.382,1.73-3.248c0.651-0.865,1.739-1.735,2.818-2.167
		c1.08-0.647,2.596-0.865,4.113-0.865c1.516,0,2.811,0.217,3.897,0.865c1.295,0.432,2.159,1.302,3.025,2.167
		c0.651,0.866,1.302,1.945,1.73,3.248c0.222,1.297,0.437,2.596,0.437,4.112c0,1.513-0.215,2.812-0.437,4.113
		c-0.429,1.298-1.079,2.378-1.73,3.248c-0.866,0.865-1.73,1.731-3.025,2.164C734.255,267.12,732.96,267.552,731.444,267.552
		L731.444,267.552z M731.444,264.524c1.73,0,3.031-0.651,3.897-1.949s1.295-3.247,1.295-5.411c0-2.381-0.429-4.112-1.295-5.414
		c-0.866-1.298-2.167-1.945-3.897-1.945c-1.731,0-3.247,0.647-3.898,1.945c-0.866,1.302-1.294,3.033-1.294,5.414
		c0,2.164,0.428,4.113,1.294,5.411C728.197,263.873,729.713,264.524,731.444,264.524L731.444,264.524z M744.211,247.205
		c0.221,0,0.436,0,0.864,0c0.223-0.215,0.437-0.215,0.873-0.215c0.215,0,0.43,0,0.645,0.215c0.221,0,0.649,0,0.864,0
		c0,0.433,0.223,0.865,0.223,1.516c0,0.651,0,1.083,0,1.517c0.429-0.434,0.643-0.866,0.865-1.298
		c0.429-0.437,0.864-0.651,1.294-1.083c0.437-0.219,1.088-0.651,1.731-0.866c0.65-0.217,1.301-0.217,1.952-0.217
		c1.517,0,2.811,0.217,3.676,0.865c0.866,0.651,1.303,1.516,1.954,2.601c0.213-0.434,0.429-0.866,0.864-1.298
		c0.429-0.437,0.865-0.651,1.295-1.083c0.437-0.219,0.864-0.651,1.516-0.866c0.651-0.217,1.303-0.217,1.946-0.217
		c2.382,0,4.112,0.649,4.984,1.948c1.08,1.298,1.731,3.248,1.731,5.628v12.771c-0.437,0-0.651,0-1.088,0c-0.429,0-0.644,0-0.864,0
		c-0.43,0-0.651,0-1.081,0c-0.214,0-0.651,0-0.865,0V255.43c0-1.731-0.215-3.029-0.866-3.896c-0.436-0.865-1.301-1.297-2.595-1.297
		c-1.303,0-2.382,0.432-3.248,1.297c-0.865,1.08-1.088,2.382-1.088,4.328v11.257c-0.429,0-0.642,0-1.079,0c-0.214,0-0.65,0-0.865,0
		s-0.651,0-1.079,0c-0.223,0-0.651,0-0.866,0v-11.904c0-1.731-0.222-3.033-0.651-3.898c-0.649-0.866-1.516-1.298-2.596-1.298
		c-0.651,0-1.302,0.219-1.73,0.432c-0.651,0.433-1.088,0.651-1.518,1.298c-0.436,0.651-0.864,1.302-1.087,2.167
		c-0.214,0.866-0.214,1.946-0.214,3.029v10.174c-0.429,0-0.651,0-1.08,0c-0.215,0-0.65,0-0.865,0c-0.437,0-0.651,0-1.088,0
		c-0.215,0-0.644,0-0.864,0V247.205z"/>
</g>
<g id="she-devel">
	<path style="fill:#771618;" d="M299.622,331.188c2.382,0.866,4.764,1.518,7.359,2.167c2.818,0.43,5.407,0.651,8.011,0.651
		c1.945,0,3.684-0.222,5.415-0.437c1.945-0.429,3.239-1.079,4.542-1.945c1.302-0.865,2.382-1.952,3.247-3.032
		c0.644-1.302,1.08-2.597,1.08-4.112s-0.213-3.033-0.865-4.113c-0.651-1.079-1.509-1.945-2.597-2.595
		c-0.865-0.866-2.167-1.518-3.461-1.954c-1.516-0.644-2.818-1.079-4.549-1.508l-4.327-1.738c-5.2-1.946-9.09-4.113-11.472-6.71
		c-2.382-2.381-3.684-5.842-3.684-9.955c0-5.628,2.167-10.173,6.066-13.421c4.113-3.243,9.955-4.978,17.752-4.978
		c3.239,0,6.272,0.432,9.519,0.866c3.033,0.65,5.843,1.516,8.01,2.167c0,1.73-0.429,3.461-0.865,4.977
		c-0.436,1.731-1.087,3.247-1.738,4.76c-1.731-0.647-3.89-1.298-6.487-1.946c-2.382-0.651-5.2-1.083-8.01-1.083
		c-3.033,0-5.844,0.651-8.226,1.731c-2.38,1.083-3.461,3.033-3.461,5.628c0,1.517,0.215,2.597,0.866,3.681
		c0.437,0.865,1.295,1.731,2.382,2.595c0.865,0.651,2.167,1.303,3.247,1.73c1.302,0.437,2.811,0.866,4.328,1.517l5.406,1.73
		c1.954,0.651,3.906,1.518,5.636,2.382c1.731,0.866,3.241,2.167,4.542,3.462c1.302,1.302,2.382,3.033,3.033,4.979
		c0.858,1.952,1.294,4.334,1.294,6.93c0,3.033-0.644,5.844-1.946,8.44c-1.08,2.596-3.032,4.763-5.192,6.493
		c-2.381,1.731-4.985,3.033-8.224,4.113c-3.255,1.087-6.717,1.517-10.607,1.517c-4.113,0-7.574-0.215-10.606-0.866
		c-2.819-0.436-5.63-1.302-8.226-2.167c0.214-1.73,0.429-3.246,1.08-4.978C298.32,334.437,298.971,332.706,299.622,331.188
		L299.622,331.188z M352.434,251.75c0.874-0.215,1.954-0.215,3.033-0.432c1.08,0,2.159,0,3.033,0c0.865,0,1.944,0,3.247,0
		c1.08,0.217,2.167,0.217,3.025,0.432v37.016c0.651-1.297,1.731-2.381,2.818-3.679c1.08-1.517,2.382-2.601,4.113-3.68
		c1.516-1.299,3.462-2.164,5.406-2.814c2.167-0.651,4.549-1.083,7.146-1.083c7.145,0,12.56,2.167,16.235,6.28
		c3.462,4.113,5.192,10.389,5.192,18.612v40.261c-0.865,0.215-1.944,0.215-3.024,0.436c-1.087,0-2.168,0-3.033,0
		c-0.866,0-1.953,0-3.033,0c-1.08-0.221-2.159-0.221-3.032-0.436v-37.013c0-5.843-1.081-10.173-3.025-12.988
		c-1.946-2.597-4.764-4.113-8.876-4.113c-2.167,0-4.326,0.433-6.28,1.299c-2.159,0.649-3.89,1.948-5.621,3.679
		c-1.523,1.735-2.818,3.898-3.684,6.495c-0.865,2.817-1.301,6.064-1.301,9.955v32.686c-0.858,0.215-1.946,0.215-3.025,0.436
		c-1.302,0-2.382,0-3.247,0c-0.874,0-1.731,0-3.033,0c-1.08-0.221-2.159-0.221-3.033-0.436V251.75z M428.841,313.873
		c0.223,6.923,1.953,12.123,5.415,15.371c3.462,3.031,8.439,4.763,15.147,4.763c5.851,0,11.472-1.088,16.672-3.032
		c0.651,1.08,1.295,2.596,1.731,4.327c0.428,1.953,0.65,3.684,0.65,5.414c-2.603,1.08-5.628,1.945-8.876,2.596
		c-3.247,0.651-6.93,0.866-10.821,0.866c-5.844,0-10.821-0.866-14.934-2.382c-4.113-1.73-7.581-3.897-10.178-6.923
		c-2.811-2.818-4.764-6.28-6.065-10.393c-1.08-4.113-1.73-8.439-1.73-13.203s0.436-9.09,1.73-13.203
		c1.301-4.112,3.032-7.578,5.636-10.606c2.374-3.033,5.406-5.415,9.306-7.361c3.675-1.733,8.224-2.599,13.202-2.599
		c4.55,0,8.225,0.866,11.687,2.167c3.248,1.513,6.065,3.68,8.226,6.276c2.167,2.597,3.897,5.628,5.199,9.309
		c1.08,3.461,1.731,7.355,1.731,11.689c0,1.081-0.223,2.383-0.223,3.677c0,1.303-0.214,2.382-0.214,3.247H428.841z M460.231,304.783
		c0-2.383-0.221-4.546-0.864-6.709c-0.651-2.167-1.518-3.897-2.604-5.628c-1.293-1.516-2.811-2.814-4.755-3.68
		c-1.73-0.865-3.899-1.516-6.495-1.516c-5.199,0-8.876,1.516-11.687,4.764c-2.604,3.028-4.334,7.141-4.985,12.77H460.231z
		 M512.393,302.188c0.215,0.864,0.438,1.73,0.438,2.811c0.214,1.087,0.214,1.951,0.214,3.032c0,0.865,0,1.731-0.214,2.811
		c0,1.088-0.223,1.952-0.438,2.604h-32.034c-0.214-0.651-0.214-1.516-0.429-2.604c0-1.079,0-1.945,0-2.811c0-1.081,0-1.945,0-3.032
		c0.215-1.08,0.215-1.946,0.429-2.811H512.393z M564.99,251.75c0.865-0.215,1.952-0.215,3.032-0.432c1.081,0,2.168,0,3.033,0
		c0.866,0,1.945,0,3.025,0c1.087,0.217,2.167,0.217,3.033,0.432v89.18c-3.248,0.866-6.71,1.731-10.607,2.382
		c-3.898,0.437-8.225,0.866-12.988,0.866c-4.541,0-8.654-0.651-12.767-1.73c-3.898-1.081-7.359-3.033-10.393-5.415
		c-3.032-2.596-5.414-6.058-7.145-9.956c-1.73-4.111-2.597-9.091-2.597-15.147c0-4.979,0.866-9.741,2.382-13.854
		c1.516-4.33,3.683-8.01,6.494-10.825c2.811-3.029,6.058-5.411,9.955-7.142c4.113-1.516,8.44-2.38,13.203-2.38
		c2.168,0,4.328,0,6.495,0.432c2.167,0.433,4.112,0.647,5.843,1.299V251.75z M564.99,289.847c-1.73-0.647-3.461-1.081-5.407-1.514
		c-1.952-0.432-3.897-0.432-6.279-0.432c-3.247,0-6.28,0.647-8.662,1.73c-2.596,1.298-4.541,3.029-6.271,5.196
		c-1.517,2.163-2.818,4.545-3.462,7.573c-0.865,3.033-1.303,6.059-1.303,9.528c0.216,8.003,1.946,13.631,5.631,16.878
		c3.675,3.469,8.653,5.2,14.934,5.2c2.167,0,4.112-0.222,5.842-0.437c1.953-0.215,3.462-0.429,4.979-0.864V289.847z
		 M601.359,313.873c0.215,6.923,1.945,12.123,5.407,15.371c3.461,3.031,8.438,4.763,15.156,4.763c5.842,0,11.464-1.088,16.664-3.032
		c0.65,1.08,1.294,2.596,1.731,4.327c0.428,1.953,0.649,3.684,0.649,5.414c-2.596,1.08-5.629,1.945-8.875,2.596
		c-3.247,0.651-6.931,0.866-10.821,0.866c-5.844,0-10.821-0.866-14.934-2.382c-4.113-1.73-7.582-3.897-10.178-6.923
		c-2.812-2.818-4.764-6.28-6.059-10.393c-1.087-4.113-1.73-8.439-1.73-13.203s0.644-9.09,1.73-13.203
		c1.295-4.112,3.025-7.578,5.629-10.606c2.382-3.033,5.407-5.415,9.305-7.361c3.677-1.733,8.226-2.599,13.203-2.599
		c4.549,0,8.226,0.866,11.688,2.167c3.246,1.513,6.064,3.68,8.224,6.276c2.169,2.597,3.899,5.628,5.2,9.309
		c1.08,3.461,1.73,7.355,1.73,11.689c0,1.081-0.221,2.383-0.221,3.677c0,1.303-0.215,2.382-0.215,3.247H601.359z M632.744,304.783
		c0-2.383-0.223-4.546-0.866-6.709c-0.651-2.167-1.517-3.897-2.604-5.628c-1.295-1.516-2.811-2.814-4.756-3.68
		c-1.731-0.865-3.898-1.516-6.495-1.516c-5.198,0-8.875,1.516-11.686,4.764c-2.604,3.028-4.335,7.141-4.764,12.77H632.744z
		 M647.463,279.024c1.079-0.218,2.382-0.218,3.676-0.433c1.08,0,2.167,0,3.247,0s2.167,0,3.462,0
		c1.302,0.215,2.382,0.215,3.246,0.433l17.538,52.379l17.529-52.379c0.866-0.218,1.731-0.218,3.033-0.433c1.08,0,2.159,0,3.247,0
		c1.079,0,1.945,0,3.248,0c1.079,0.215,2.159,0.215,3.461,0.433l-24.897,63.637c-1.079,0.215-2.159,0.215-3.246,0.436
		c-1.08,0-1.946,0-3.025,0c-0.866,0-1.731,0-2.818,0c-1.08-0.221-1.946-0.221-3.025-0.436L647.463,279.024z M725.601,313.873
		c0.215,6.923,1.945,12.123,5.407,15.371c3.468,3.031,8.446,4.763,15.155,4.763c6.058,0,11.472-1.088,16.879-3.032
		c0.651,1.08,1.088,2.596,1.517,4.327c0.436,1.953,0.65,3.684,0.865,5.414c-2.811,1.08-5.843,1.945-9.091,2.596
		c-3.247,0.651-6.924,0.866-10.821,0.866c-5.843,0-10.821-0.866-14.934-2.382c-4.113-1.73-7.574-3.897-10.178-6.923
		c-2.811-2.818-4.756-6.28-5.844-10.393c-1.295-4.113-1.944-8.439-1.944-13.203s0.649-9.09,1.73-13.203
		c1.302-4.112,3.032-7.578,5.629-10.606c2.382-3.033,5.629-5.415,9.306-7.361c3.897-1.733,8.224-2.599,13.424-2.599
		c4.327,0,8.226,0.866,11.472,2.167c3.241,1.513,6.059,3.68,8.226,6.276c2.375,2.597,4.113,5.628,5.192,9.309
		c1.08,3.461,1.731,7.355,1.731,11.689c0,1.081,0,2.383-0.215,3.677c0,1.303,0,2.382-0.222,3.247H725.601z M757.198,304.783
		c0-2.383-0.428-4.546-0.865-6.709c-0.65-2.167-1.729-3.897-2.811-5.628c-1.302-1.516-2.818-2.814-4.549-3.68
		c-1.945-0.865-4.113-1.516-6.709-1.516c-4.978,0-8.876,1.516-11.687,4.764c-2.596,3.028-4.113,7.141-4.763,12.77H757.198z
		 M780.579,251.75c0.866-0.215,1.945-0.215,3.025-0.432c1.087,0,2.167,0,3.033,0c0.864,0,1.944,0,3.031,0
		c1.08,0.217,2.161,0.217,3.025,0.432V323.4c0,2.382,0.223,4.113,0.651,5.406c0.437,1.303,0.865,2.382,1.73,3.033
		c0.651,0.866,1.517,1.302,2.383,1.516c1.087,0.215,1.951,0.215,3.032,0.215c0.865,0,1.729,0,2.596,0
		c0.866-0.215,1.731-0.215,2.382-0.429c0.865,2.811,1.08,6.058,1.08,9.306c-1.08,0.429-2.596,0.864-4.112,0.864
		c-1.731,0.215-3.247,0.215-4.542,0.215c-2.596,0-4.764-0.215-6.708-0.865c-2.167-0.651-3.899-1.517-5.629-2.811
		c-1.517-1.303-2.819-3.247-3.684-5.414c-0.865-2.161-1.295-4.979-1.295-8.226V251.75z"/>
</g>
<g id="Logo">
	<g>
		<path style="fill-rule:evenodd;clip-rule:evenodd;fill:#57575A;" d="M140.743,267.986c16.45,0,29.66,13.42,29.66,29.652
			c0,16.45-13.21,29.653-29.66,29.653c-16.451,0-29.646-13.203-29.646-29.653C111.097,281.406,124.292,267.986,140.743,267.986
			L140.743,267.986z M140.743,281.621c8.875,0,16.021,7.359,16.021,16.017c0,8.875-7.146,16.021-16.021,16.021
			c-8.869,0-16.014-7.146-16.014-16.021C124.729,288.98,131.874,281.621,140.743,281.621L140.743,281.621z"/>
		<path style="fill-rule:evenodd;clip-rule:evenodd;fill:#771618;" d="M140.743,403.055c-43.07,0-80.297-25.978-96.533-63.204
			c10.17-7.359,18.616-9.957,28.788,4.764c14.934,21.642,39.83,35.711,67.746,35.711c35.074,0,65.156-22.08,77.057-53.034l0,0
			c6.495-16.45-19.688-17.315-32.027-17.315c-3.469,0-7.145,0.436-10.392,0.865c1.517-4.112,2.374-8.653,2.374-13.203
			c0-4.978-1.08-9.737-2.811-14.069c6.28,1.731,12.988,2.597,19.912,2.597c16.672,0,35.933-5.411,48.708-11.472
			c1.731,7.359,2.596,15.153,2.596,22.944c0,0.869,0,1.735,0,2.382l0,0C244.857,356.951,198.111,403.055,140.743,403.055
			L140.743,403.055z M140.743,192.226c43.078,0,80.313,25.972,96.541,63.204c-10.171,7.359-18.395,9.958-28.788-4.76
			c-14.934-21.432-39.609-35.5-67.753-35.5c-35.06,0-65.15,22.079-77.051,52.816l0,0C57.413,284.654,83.39,285.3,95.727,285.3
			c3.684,0,7.146-0.214,10.385-0.646c-1.508,4.112-2.382,8.439-2.382,12.984c0,4.977,1.087,9.742,2.818,14.068
			c-6.057-1.73-12.773-2.596-19.911-2.596c-16.457,0-35.719,5.414-48.707,11.472c-1.731-7.359-2.589-14.934-2.589-22.944
			c0-0.647,0-1.512,0-2.378l0,0C36.635,238.332,83.39,192.226,140.743,192.226L140.743,192.226z"/>
	</g>
</g>
</svg>
